<?xml version="1.0" encoding="UTF-8" standalone="no"?>
<!-- Created with Inkscape (http://www.inkscape.org/) -->

<svg
   xmlns:dc="http://purl.org/dc/elements/1.1/"
   xmlns:cc="http://creativecommons.org/ns#"
   xmlns:rdf="http://www.w3.org/1999/02/22-rdf-syntax-ns#"
   xmlns:svg="http://www.w3.org/2000/svg"
   xmlns="http://www.w3.org/2000/svg"
   xmlns:xlink="http://www.w3.org/1999/xlink"
   xmlns:sodipodi="http://sodipodi.sourceforge.net/DTD/sodipodi-0.dtd"
   xmlns:inkscape="http://www.inkscape.org/namespaces/inkscape"
   width="168.75"
   height="87.963181"
   id="svg5613"
   version="1.1"
   inkscape:version="0.48.2 r9819"
   sodipodi:docname="vec1.svg">
  <defs
     id="defs5615">
    <linearGradient
       gradientTransform="translate(88.692719,-156.63759)"
       inkscape:collect="always"
       xlink:href="#linearGradient10064-9"
       id="linearGradient6783-6"
       gradientUnits="userSpaceOnUse"
       x1="258.09552"
       y1="600.69366"
       x2="290.28665"
       y2="603.63269" />
    <linearGradient
       id="linearGradient10064-9">
      <stop
         style="stop-color:#8f5902;stop-opacity:1"
         offset="0"
         id="stop10066-7" />
      <stop
         style="stop-color:#c17d11;stop-opacity:1"
         offset="1"
         id="stop10068-7" />
    </linearGradient>
  </defs>
  <sodipodi:namedview
     id="base"
     pagecolor="#ffffff"
     bordercolor="#666666"
     borderopacity="1.0"
     inkscape:pageopacity="0.0"
     inkscape:pageshadow="2"
     inkscape:zoom="1.4142136"
     inkscape:cx="510.62209"
     inkscape:cy="-73.107538"
     inkscape:document-units="px"
     inkscape:current-layer="layer1"
     showgrid="false"
     fit-margin-top="0"
     fit-margin-left="0"
     fit-margin-right="0"
     fit-margin-bottom="0"
     inkscape:window-width="1920"
     inkscape:window-height="956"
     inkscape:window-x="192"
     inkscape:window-y="0"
     inkscape:window-maximized="0" />
  <metadata
     id="metadata5618">
    <rdf:RDF>
      <cc:Work
         rdf:about="">
        <dc:format>image/svg+xml</dc:format>
        <dc:type
           rdf:resource="http://purl.org/dc/dcmitype/StillImage" />
        <dc:title></dc:title>
      </cc:Work>
    </rdf:RDF>
  </metadata>
  <g
     inkscape:label="Laag 1"
     inkscape:groupmode="layer"
     id="layer1"
     transform="translate(-274.83524,-388.95506)">
    <path
       inkscape:connector-curvature="0"
       id="path9864"
       d="m 385.22397,388.95616 c -17.37756,-0.10986 -40.54302,8.00281 -51.25,17.71875 0.18786,21.76291 -2.05645,34.00004 -5.9375,48.5625 17.98227,0.73415 33.74381,5.75266 43.71875,13.15625 12.60595,-2.72561 24.79067,-7.70162 37.78125,-8.4375 -1.90687,-19.63899 -2.13121,-38.23755 -2.625,-57.125 -0.63283,-9.87218 -9.79759,-13.79983 -21.6875,-13.875 z"
       style="fill:#764c02;fill-opacity:1;fill-rule:nonzero;stroke:none;display:inline" />
    <path
       inkscape:connector-curvature="0"
       id="path9864-9"
       d="m 383.34171,396.96357 c -15.77436,-0.0997 -36.80264,7.26449 -46.52182,16.08407 0.17052,19.75513 -1.86673,30.8633 -5.38973,44.08227 16.32328,0.66642 30.6307,5.22193 39.68539,11.94249 11.44296,-2.47416 22.50355,-6.99109 34.29566,-7.65909 -1.73095,-17.82715 -1.93459,-34.70986 -2.38283,-51.85481 -0.57445,-8.9614 -8.89369,-12.5267 -19.68667,-12.59493 z"
       style="fill:url(#linearGradient6783-6);fill-opacity:1;fill-rule:nonzero;stroke:none;display:inline" />
    <path
       inkscape:connector-curvature="0"
       sodipodi:nodetypes="ccscccccccccccc"
       id="path9191"
       d="m 323.46024,454.66372 c -20.09072,0 -37.84869,5.32331 -48.625,13.5 11.48203,-5.54233 27.09252,-8.9375 44.3125,-8.9375 18.27415,0 34.74457,3.84387 46.375,10 -7.27469,1.55848 -13.92511,2.92628 -21.21875,3.53125 -5.39142,-0.0532 -11.27398,0.71769 -16.15625,-2.0625 l -5,3.15625 c -1.86372,6.81146 32.80699,0.28777 36.78125,-0.65625 7.32259,-1.08731 14.41748,-3.20058 21.53125,-5.1875 11.35511,-3.07989 21.27394,-5.96013 36.09375,-4.90625 10.69118,0.97877 13.74806,2.35194 26.03125,5.03125 -4.15927,-2.37778 -8.64225,-4.15812 -13.1875,-5.65625 -6.21666,-2.35432 -12.86513,-3.34418 -19.5,-3.0625 -13.50702,0.44493 -26.10737,5.67862 -39.15625,8.5 -10.81381,-8.02621 -28.40523,-13.25 -48.28125,-13.25 z"
       style="fill:#5a5148;fill-opacity:1;fill-rule:nonzero;stroke:none;display:inline" />
  </g>
</svg>
