<?xml version="1.0" encoding="UTF-8" standalone="no"?>
<!-- Created with Inkscape (http://www.inkscape.org/) -->

<svg
   xmlns:dc="http://purl.org/dc/elements/1.1/"
   xmlns:cc="http://creativecommons.org/ns#"
   xmlns:rdf="http://www.w3.org/1999/02/22-rdf-syntax-ns#"
   xmlns:svg="http://www.w3.org/2000/svg"
   xmlns="http://www.w3.org/2000/svg"
   xmlns:xlink="http://www.w3.org/1999/xlink"
   version="1.1"
   width="442.03207"
   height="143.79536"
   id="svg5861">
  <defs
     id="defs5863">
    <linearGradient
       x1="283.0336"
       y1="453.03683"
       x2="284.7728"
       y2="581.74365"
       id="linearGradient6765"
       xlink:href="#linearGradient10022"
       gradientUnits="userSpaceOnUse"
       gradientTransform="translate(206.05755,87.733353)" />
    <linearGradient
       id="linearGradient10022">
      <stop
         id="stop10024"
         style="stop-color:#4e9a06;stop-opacity:1"
         offset="0" />
      <stop
         id="stop10026"
         style="stop-color:#73d216;stop-opacity:1"
         offset="1" />
    </linearGradient>
    <linearGradient
       x1="63.75676"
       y1="526.11713"
       x2="505.78885"
       y2="526.11713"
       id="linearGradient5576"
       xlink:href="#linearGradient5562"
       gradientUnits="userSpaceOnUse"
       gradientTransform="translate(206.05755,87.733353)" />
    <linearGradient
       id="linearGradient5562">
      <stop
         id="stop5564"
         style="stop-color:#3b5038;stop-opacity:1"
         offset="0" />
      <stop
         id="stop5566"
         style="stop-color:#11a800;stop-opacity:1"
         offset="1" />
    </linearGradient>
  </defs>
  <metadata
     id="metadata5866">
    <rdf:RDF>
      <cc:Work
         rdf:about="">
        <dc:format>image/svg+xml</dc:format>
        <dc:type
           rdf:resource="http://purl.org/dc/dcmitype/StillImage" />
        <dc:title></dc:title>
      </cc:Work>
    </rdf:RDF>
  </metadata>
  <g
     transform="translate(-269.81431,-551.8239)"
     id="layer1">
    <path
       d="m 466.79415,593.88415 -2.64982,0.077 0.84793,20.08125 1.27497,-0.077 0.52692,-20.08125 z"
       id="path4765-8-1-7-2-6"
       style="font-size:medium;font-style:normal;font-variant:normal;font-weight:normal;font-stretch:normal;text-indent:0;text-align:start;text-decoration:none;line-height:normal;letter-spacing:normal;word-spacing:normal;text-transform:none;direction:ltr;block-progression:tb;writing-mode:lr-tb;text-anchor:start;color:#000000;fill:#312c29;fill-opacity:1;fill-rule:nonzero;stroke:none;stroke-width:1px;marker:none;visibility:visible;display:inline;overflow:visible;enable-background:accumulate;font-family:Bitstream Vera Sans;-inkscape-font-specification:Bitstream Vera Sans" />
    <path
       d="m 481.14417,627.02178 c 0,8.4271 -6.83151,15.25861 -15.2586,15.25861 -8.42709,0 -15.25859,-6.83151 -15.25859,-15.25861 0,-8.42709 6.8315,-15.25859 15.25859,-15.25859 8.42709,0 15.2586,6.8315 15.2586,15.25859 z"
       id="path4719-9-5-5-2-5"
       style="fill:#132c51;fill-opacity:1;fill-rule:nonzero;stroke:none;display:inline" />
    <path
       d="m 463.00311,623.88118 c -2.24664,1.37072 -4.84697,1.19798 -5.80797,-0.38584 -0.96101,-1.58382 0.0812,-3.97896 2.32785,-5.34968 2.24665,-1.37073 4.84697,-1.19799 5.80797,0.38584 0.96102,1.58381 -0.0812,3.97895 -2.32785,5.34968 z"
       id="path5543-4-8-7-6-2-6"
       style="fill:#cbdbed;fill-opacity:1;fill-rule:nonzero;stroke:none;display:inline" />
    <path
       d="m 465.84375,618.23491 c -0.60089,-0.99033 -1.69696,-1.50522 -2.89229,-1.58463 -1.19534,-0.0794 -2.51808,0.25751 -3.73961,1.0028 -1.22153,0.74528 -2.12792,1.7684 -2.60702,2.86941 -0.47909,1.10101 -0.52686,2.31378 0.074,3.30411 0.60091,0.99034 1.7037,1.51634 2.89904,1.59575 1.19533,0.0794 2.51808,-0.25752 3.73961,-1.0028 1.22153,-0.74529 2.12792,-1.7684 2.60701,-2.86942 0.47909,-1.10101 0.52013,-2.32488 -0.0808,-3.31522 z m -1.03188,0.62958 c 0.36011,0.59348 0.36456,1.3716 8.1e-4,2.20678 -0.36343,0.83519 -1.09735,1.68953 -2.12247,2.31498 -1.02511,0.62544 -2.1302,0.89313 -3.03694,0.83289 -0.90674,-0.0602 -1.58274,-0.42862 -1.94285,-1.02211 -0.36011,-0.59349 -0.36891,-1.35372 -0.006,-2.18891 0.36342,-0.83519 1.10844,-1.6963 2.13356,-2.32174 1.02512,-0.62545 2.11911,-0.88636 3.02584,-0.82612 0.90674,0.0602 1.5871,0.41074 1.94721,1.00423 z"
       id="path5543-2-1-1-1-1"
       style="font-size:medium;font-style:normal;font-variant:normal;font-weight:normal;font-stretch:normal;text-indent:0;text-align:start;text-decoration:none;line-height:normal;letter-spacing:normal;word-spacing:normal;text-transform:none;direction:ltr;block-progression:tb;writing-mode:lr-tb;text-anchor:start;color:#000000;fill:#132c51;fill-opacity:1;fill-rule:nonzero;stroke:none;stroke-width:2.90793633;marker:none;visibility:visible;display:inline;overflow:visible;enable-background:accumulate;font-family:Bitstream Vera Sans;-inkscape-font-specification:Bitstream Vera Sans" />
    <path
       d="m 653.34276,638.79059 -2.64982,0.077 0.84793,20.08126 1.27497,-0.077 0.52692,-20.08126 z"
       id="path4765-8-5"
       style="font-size:medium;font-style:normal;font-variant:normal;font-weight:normal;font-stretch:normal;text-indent:0;text-align:start;text-decoration:none;line-height:normal;letter-spacing:normal;word-spacing:normal;text-transform:none;direction:ltr;block-progression:tb;writing-mode:lr-tb;text-anchor:start;color:#000000;fill:#312c29;fill-opacity:1;fill-rule:nonzero;stroke:none;stroke-width:1px;marker:none;visibility:visible;display:inline;overflow:visible;enable-background:accumulate;font-family:Bitstream Vera Sans;-inkscape-font-specification:Bitstream Vera Sans" />
    <path
       d="m 671.72568,676.69439 c 0,10.45192 -8.47296,18.92488 -18.92488,18.92488 -10.45192,0 -18.92486,-8.47296 -18.92486,-18.92488 0,-10.45191 8.47294,-18.92486 18.92486,-18.92486 10.45192,0 18.92488,8.47295 18.92488,18.92486 z"
       id="path4719-9-57"
       style="fill:#640000;fill-opacity:1;fill-rule:nonzero;stroke:none;display:inline" />
    <path
       d="m 649.22576,672.79918 c -2.78646,1.70008 -6.01158,1.48583 -7.20349,-0.47854 -1.19192,-1.96438 0.10072,-4.93501 2.88718,-6.63508 2.78647,-1.70009 6.01158,-1.48584 7.20349,0.47854 1.19192,1.96437 -0.10071,4.935 -2.88718,6.63508 z"
       id="path5543-4-8-4"
       style="fill:#fabdbd;fill-opacity:1;fill-rule:nonzero;stroke:none;display:inline" />
    <path
       d="m 652.74894,665.79625 c -0.74528,-1.22828 -2.1047,-1.86689 -3.58724,-1.96538 -1.48255,-0.0985 -3.12312,0.31939 -4.63815,1.24375 -1.51504,0.92435 -2.63921,2.1933 -3.23342,3.55886 -0.59421,1.36556 -0.65346,2.86973 0.0918,4.09801 0.74529,1.22829 2.11306,1.88068 3.59561,1.97917 1.48254,0.0985 3.12311,-0.3194 4.63815,-1.24375 1.51503,-0.92436 2.6392,-2.1933 3.23341,-3.55887 0.59421,-1.36556 0.6451,-2.8835 -0.10018,-4.11179 z m -1.27982,0.78085 c 0.44663,0.73608 0.45216,1.70116 10e-4,2.73702 -0.45075,1.03587 -1.36101,2.09548 -2.63244,2.87121 -1.27143,0.77572 -2.64204,1.10773 -3.76665,1.03302 -1.12461,-0.0747 -1.96303,-0.53161 -2.40967,-1.2677 -0.44663,-0.73609 -0.45755,-1.67899 -0.007,-2.71485 0.45075,-1.03587 1.37478,-2.10388 2.64621,-2.8796 1.27143,-0.77573 2.62828,-1.09933 3.75288,-1.02462 1.12461,0.0747 1.96844,0.50943 2.41507,1.24552 z"
       id="path5543-2-7"
       style="font-size:medium;font-style:normal;font-variant:normal;font-weight:normal;font-stretch:normal;text-indent:0;text-align:start;text-decoration:none;line-height:normal;letter-spacing:normal;word-spacing:normal;text-transform:none;direction:ltr;block-progression:tb;writing-mode:lr-tb;text-anchor:start;color:#000000;fill:#640000;fill-opacity:1;fill-rule:nonzero;stroke:none;stroke-width:2.90793633;marker:none;visibility:visible;display:inline;overflow:visible;enable-background:accumulate;font-family:Bitstream Vera Sans;-inkscape-font-specification:Bitstream Vera Sans" />
    <path
       d="m 321.82255,644.70875 -2.64982,0.077 0.84793,20.08125 1.27497,-0.077 0.52692,-20.08125 z"
       id="path4765-8-1-7-2-6-4"
       style="font-size:medium;font-style:normal;font-variant:normal;font-weight:normal;font-stretch:normal;text-indent:0;text-align:start;text-decoration:none;line-height:normal;letter-spacing:normal;word-spacing:normal;text-transform:none;direction:ltr;block-progression:tb;writing-mode:lr-tb;text-anchor:start;color:#000000;fill:#312c29;fill-opacity:1;fill-rule:nonzero;stroke:none;stroke-width:1px;marker:none;visibility:visible;display:inline;overflow:visible;enable-background:accumulate;font-family:Bitstream Vera Sans;-inkscape-font-specification:Bitstream Vera Sans" />
    <path
       d="m 336.17257,677.84638 c 0,8.42709 -6.83151,15.2586 -15.2586,15.2586 -8.42709,0 -15.25859,-6.83151 -15.25859,-15.2586 0,-8.42709 6.8315,-15.25859 15.25859,-15.25859 8.42709,0 15.2586,6.8315 15.2586,15.25859 z"
       id="path4719-9-5-5-2-5-0"
       style="fill:#132c51;fill-opacity:1;fill-rule:nonzero;stroke:none;display:inline" />
    <path
       d="m 318.03151,674.70578 c -2.24664,1.37072 -4.84697,1.19798 -5.80797,-0.38584 -0.96101,-1.58382 0.0812,-3.97896 2.32785,-5.34968 2.24665,-1.37073 4.84697,-1.19799 5.80797,0.38584 0.96102,1.58381 -0.0812,3.97895 -2.32785,5.34968 z"
       id="path5543-4-8-7-6-2-6-0"
       style="fill:#cbdbed;fill-opacity:1;fill-rule:nonzero;stroke:none;display:inline" />
    <path
       d="m 320.87215,669.05951 c -0.60089,-0.99033 -1.69696,-1.50522 -2.89229,-1.58463 -1.19534,-0.0794 -2.51808,0.25751 -3.73961,1.0028 -1.22153,0.74528 -2.12792,1.7684 -2.60702,2.86941 -0.47909,1.10101 -0.52686,2.31378 0.074,3.30411 0.60091,0.99034 1.7037,1.51634 2.89904,1.59575 1.19533,0.0794 2.51808,-0.25752 3.73961,-1.0028 1.22153,-0.74529 2.12792,-1.7684 2.60701,-2.86942 0.47909,-1.10101 0.52013,-2.32488 -0.0808,-3.31522 z m -1.03188,0.62958 c 0.36011,0.59348 0.36456,1.3716 8.1e-4,2.20678 -0.36343,0.83519 -1.09735,1.68953 -2.12247,2.31498 -1.02511,0.62544 -2.1302,0.89313 -3.03694,0.83289 -0.90674,-0.0602 -1.58274,-0.42862 -1.94285,-1.02211 -0.36011,-0.59349 -0.36891,-1.35372 -0.006,-2.18891 0.36342,-0.83519 1.10844,-1.6963 2.13356,-2.32174 1.02512,-0.62545 2.11911,-0.88636 3.02584,-0.82612 0.90674,0.0602 1.5871,0.41074 1.94721,1.00423 z"
       id="path5543-2-1-1-1-1-6"
       style="font-size:medium;font-style:normal;font-variant:normal;font-weight:normal;font-stretch:normal;text-indent:0;text-align:start;text-decoration:none;line-height:normal;letter-spacing:normal;word-spacing:normal;text-transform:none;direction:ltr;block-progression:tb;writing-mode:lr-tb;text-anchor:start;color:#000000;fill:#132c51;fill-opacity:1;fill-rule:nonzero;stroke:none;stroke-width:2.90793633;marker:none;visibility:visible;display:inline;overflow:visible;enable-background:accumulate;font-family:Bitstream Vera Sans;-inkscape-font-specification:Bitstream Vera Sans" />
    <path
       d="m 382.3388,558.23335 c -5.55365,0.12641 -11.02944,1.53922 -16.40625,3.5625 -9.44972,3.5559 -18.60682,8.973 -27.5,12.59375 -2.26574,0.79991 -4.52002,1.47243 -6.6875,1.96875 -3.99393,6.28711 -8.18727,12.42815 -12.625,18.40625 -6.23099,8.39384 -12.93248,16.44497 -20.0625,24.0625 -7.13612,7.62405 -14.71635,14.81793 -22.78125,21.46875 -0.32864,4.17988 0.67039,6.98474 2.5,9.0625 1.98047,2.24908 5.10669,3.75863 8.90625,4.4375 7.59913,1.35775 17.57482,-0.91267 22.9375,-4.84375 0.17372,-0.13574 0.36246,-0.25107 0.5625,-0.34375 9.94758,-4.21545 20.74091,-5.12293 31.03125,-3.1875 10.28029,1.93355 20.05856,6.70447 28.03125,13.8125 0.0121,0.008 0.0192,0.0236 0.0312,0.0312 8.67201,5.49253 18.48343,7.07436 28.46875,6.40625 9.70648,-0.64946 19.57646,-3.42572 28.78125,-6.75 0.18285,-0.0604 0.37129,-0.10224 0.5625,-0.125 13.78874,-1.95028 26.65938,2.13381 39.09375,5.71875 12.39246,3.57286 24.3104,6.62601 36.53125,3.9375 7.19828,-2.5492 14.5286,-6.53831 22.375,-9.375 7.37085,-2.66477 15.19659,-4.31415 23.8125,-2.75 l 0,-0.0312 c 9.86671,0.39001 19.15308,3.81167 28.03125,5.875 8.87817,2.06333 17.10625,2.85101 25.5,-1.21875 0.12117,-0.0608 0.24648,-0.11306 0.375,-0.15625 7.72039,-2.41822 15.07425,-7.82589 23.03125,-12.40625 7.89044,-4.54204 16.67593,-8.26137 26.9375,-6.40625 0.0866,0.0157 0.16322,0.0149 0.25,0.0312 7.53736,0.74857 14.53103,3.11903 21.28125,5.375 7.30258,2.44058 14.31934,4.74496 21.40625,4.65625 4.20069,-1.02236 6.52042,-2.52248 7.625,-4.03125 1.12903,-1.54216 1.36516,-3.26572 0.84375,-5.65625 -1.04282,-4.78106 -5.78016,-11.34193 -11.28125,-16.5625 -0.0105,-0.0103 -0.021,-0.0208 -0.0312,-0.0312 -8.7703,-8.43284 -16.912,-17.49617 -24.4375,-27.0625 -5.20976,-7.78364 -10.48005,-13.54588 -15.1875,-18.84375 -7.1224,-3.33472 -14.40576,-7.2831 -21.875,-10.09375 -9.55878,-3.59695 -19.38531,-5.28909 -29.5,-1.21875 -7.69642,3.76867 -14.75569,9.92915 -22.25,14.78125 -7.57156,4.90211 -15.58719,8.46867 -25.15625,6.875 -10.00446,-3.88453 -19.11458,-9.48348 -28.34375,-14.8125 -9.82505,-3.44808 -19.19196,-9.69399 -29.1875,-12.15625 -10.52101,-2.90917 -19.73573,0.46041 -28.625,5.25 -8.79537,4.73899 -17.27183,10.86777 -26.4375,13.75 -9.56906,1.59367 -17.61595,-1.97289 -25.1875,-6.875 -7.49432,-4.8521 -14.52234,-11.01258 -22.21875,-14.78125 -4.42518,-1.78077 -8.80549,-2.44207 -13.125,-2.34375 z"
       id="path10054"
       style="fill:url(#linearGradient6765);fill-opacity:1;stroke:url(#linearGradient5576);stroke-width:12.80000019;stroke-miterlimit:4;stroke-opacity:1;stroke-dasharray:none;display:inline" />
  </g>
</svg>
