<?xml version="1.0" encoding="UTF-8" standalone="no"?>
<!-- Created with Inkscape (http://www.inkscape.org/) -->

<svg
   xmlns:dc="http://purl.org/dc/elements/1.1/"
   xmlns:cc="http://creativecommons.org/ns#"
   xmlns:rdf="http://www.w3.org/1999/02/22-rdf-syntax-ns#"
   xmlns:svg="http://www.w3.org/2000/svg"
   xmlns="http://www.w3.org/2000/svg"
   xmlns:xlink="http://www.w3.org/1999/xlink"
   version="1.1"
   width="375.20245"
   height="106.61103"
   id="svg3110">
  <defs
     id="defs3112">
    <linearGradient
       x1="292.53595"
       y1="389.45322"
       x2="292.53119"
       y2="493.70288"
       id="linearGradient6742"
       xlink:href="#linearGradient10022"
       gradientUnits="userSpaceOnUse"
       gradientTransform="matrix(1,0,0,0.99112558,0,3.4561719)" />
    <linearGradient
       id="linearGradient10022">
      <stop
         id="stop10024"
         style="stop-color:#4e9a06;stop-opacity:1"
         offset="0" />
      <stop
         id="stop10026"
         style="stop-color:#73d216;stop-opacity:1"
         offset="1" />
    </linearGradient>
    <linearGradient
       x1="104.92965"
       y1="445.87222"
       x2="480.13275"
       y2="445.87222"
       id="linearGradient5574"
       xlink:href="#linearGradient5562"
       gradientUnits="userSpaceOnUse" />
    <linearGradient
       id="linearGradient5562">
      <stop
         id="stop5564"
         style="stop-color:#3b5038;stop-opacity:1"
         offset="0" />
      <stop
         id="stop5566"
         style="stop-color:#11a800;stop-opacity:1"
         offset="1" />
    </linearGradient>
    <linearGradient
       x1="292.53595"
       y1="389.45322"
       x2="292.53119"
       y2="493.70288"
       id="linearGradient3106"
       xlink:href="#linearGradient10022"
       gradientUnits="userSpaceOnUse"
       gradientTransform="matrix(1,0,0,0.99112558,81.754557,-44.33958)" />
    <linearGradient
       x1="104.92965"
       y1="445.87222"
       x2="480.13275"
       y2="445.87222"
       id="linearGradient3108"
       xlink:href="#linearGradient5562"
       gradientUnits="userSpaceOnUse"
       gradientTransform="translate(81.754557,-47.79575)" />
  </defs>
  <metadata
     id="metadata3115">
    <rdf:RDF>
      <cc:Work
         rdf:about="">
        <dc:format>image/svg+xml</dc:format>
        <dc:type
           rdf:resource="http://purl.org/dc/dcmitype/StillImage" />
        <dc:title></dc:title>
      </cc:Work>
    </rdf:RDF>
  </metadata>
  <g
     transform="translate(-186.68416,-344.77095)"
     id="layer1">
    <path
       d="m 373.19206,351.173 c -8.3242,-0.0686 -16.5637,1.58166 -23.75,5.40625 -6.4718,4.48438 -14.3827,5.83978 -22.4063,5.4375 -7.8847,-0.39533 -15.8805,-2.48287 -22.8125,-5 -11.352,-5.29802 -24.993,-7.37573 -37.8125,-4.5 -9.2419,1.62346 -17.7421,4.98109 -25.625,8.96875 -2.0266,4.14252 -4.1026,8.24871 -6.3437,12.28125 -4.7851,8.60993 -10.1863,16.9685 -16.75,25 -6.0002,7.34184 -12.9845,14.41298 -21.3438,21.1875 -2.6456,3.6485 -3.3792,6.33249 -3.25,7.78125 0.1322,1.48202 0.7282,2.3246 2.6563,3.28125 3.8305,1.90059 12.8247,2.03866 22.5625,-1.375 0.02,-0.008 0.042,-0.0229 0.062,-0.0312 8.1892,-3.36192 17.0927,-8.65577 26.6562,-12.25 9.5871,-3.6031 20.1982,-5.43487 31,-1.0625 0.085,0.0386 0.1682,0.0803 0.25,0.125 8.0921,3.98568 14.9833,10.10492 21.9063,14.59375 6.847,4.4396 13.3478,7.2177 21.125,6 7.9124,-2.5782 15.8802,-8.2591 24.5937,-12.96875 8.7925,-4.75232 18.8222,-8.45034 30.125,-5.34375 0.033,0.009 0.061,0.0222 0.094,0.0312 10.493,2.62378 19.5443,8.71725 28.3125,11.8125 0.2281,0.0832 0.4479,0.18781 0.6563,0.3125 8.7749,5.09646 17.2394,10.25962 26.25,13.84375 7.7484,1.19205 14.211,-1.573 21.0312,-6 6.915,-4.48853 13.8132,-10.6076 21.9063,-14.59375 0.082,-0.0447 0.1651,-0.0864 0.25,-0.125 10.8018,-4.37237 21.4129,-2.5406 31,1.0625 9.5634,3.59423 18.467,8.88809 26.6562,12.25 0.02,0.008 0.042,0.0231 0.062,0.0312 9.7393,3.41432 18.7329,3.26976 22.5625,1.375 1.9276,-0.95372 2.5244,-1.77241 2.6563,-3.25 0.1289,-1.44442 -0.6042,-4.13238 -3.25,-7.78125 -8.3705,-6.78364 -15.3397,-13.86233 -21.3438,-21.21875 -6.5667,-8.04574 -11.9643,-16.40586 -16.75,-25.03125 -3.9425,-7.10577 -7.4626,-14.41281 -10.875,-21.84375 -6.162,-3.12805 -11.9366,-6.62675 -19.0625,-5.78125 -16.033,4.29276 -5.9515,24.79388 -23.8125,26.90625 -10.4784,-1.3537 -19.9589,-4.74008 -29.0937,-8.78125 -9.3344,-4.12944 -18.31,-8.94818 -27.625,-12.9375 -7.8841,-4.25119 -17.3498,-7.05848 -26.9063,-7.6875 -1.1893,-0.0783 -2.3733,-0.1152 -3.5625,-0.125 z"
       id="path10050"
       style="fill:url(#linearGradient3106);fill-opacity:1;stroke:url(#linearGradient3108);stroke-width:12.80000019;stroke-miterlimit:4;stroke-opacity:1;stroke-dasharray:none;display:inline" />
  </g>
</svg>
