<?xml version="1.0" encoding="UTF-8" standalone="no"?>
<!-- Created with Inkscape (http://www.inkscape.org/) -->

<svg
   xmlns:dc="http://purl.org/dc/elements/1.1/"
   xmlns:cc="http://creativecommons.org/ns#"
   xmlns:rdf="http://www.w3.org/1999/02/22-rdf-syntax-ns#"
   xmlns:svg="http://www.w3.org/2000/svg"
   xmlns="http://www.w3.org/2000/svg"
   xmlns:xlink="http://www.w3.org/1999/xlink"
   xmlns:sodipodi="http://sodipodi.sourceforge.net/DTD/sodipodi-0.dtd"
   xmlns:inkscape="http://www.inkscape.org/namespaces/inkscape"
   width="255.13136"
   height="110.81242"
   id="svg3327"
   version="1.1"
   inkscape:version="0.48.4 r9939"
   sodipodi:docname="Nieuw document 10">
  <defs
     id="defs3329">
    <linearGradient
       inkscape:collect="always"
       xlink:href="#linearGradient10022"
       id="linearGradient6711"
       gradientUnits="userSpaceOnUse"
       x1="285.06982"
       y1="205.97632"
       x2="283.40076"
       y2="337.64514"
       gradientTransform="translate(-1.6554096,0)" />
    <linearGradient
       id="linearGradient10022">
      <stop
         id="stop10024"
         offset="0"
         style="stop-color:#4e9a06;stop-opacity:1;" />
      <stop
         id="stop10026"
         offset="1"
         style="stop-color:#73d216;stop-opacity:1" />
    </linearGradient>
    <linearGradient
       inkscape:collect="always"
       xlink:href="#linearGradient5562"
       id="linearGradient5570"
       x1="154.1946"
       y1="288.63141"
       x2="409.29608"
       y2="288.63141"
       gradientUnits="userSpaceOnUse" />
    <linearGradient
       id="linearGradient5562">
      <stop
         style="stop-color:#3b5038;stop-opacity:1;"
         offset="0"
         id="stop5564" />
      <stop
         style="stop-color:#11a800;stop-opacity:1;"
         offset="1"
         id="stop5566" />
    </linearGradient>
    <linearGradient
       y2="337.64514"
       x2="283.40076"
       y1="205.97632"
       x1="285.06982"
       gradientTransform="translate(-66.257914,-33.412087)"
       gradientUnits="userSpaceOnUse"
       id="linearGradient3323"
       xlink:href="#linearGradient10022"
       inkscape:collect="always" />
    <linearGradient
       gradientTransform="translate(-64.602514,-33.412087)"
       y2="288.63141"
       x2="409.29608"
       y1="288.63141"
       x1="154.1946"
       gradientUnits="userSpaceOnUse"
       id="linearGradient3325"
       xlink:href="#linearGradient5562"
       inkscape:collect="always" />
  </defs>
  <sodipodi:namedview
     id="base"
     pagecolor="#ffffff"
     bordercolor="#666666"
     borderopacity="1.0"
     inkscape:pageopacity="0.0"
     inkscape:pageshadow="2"
     inkscape:zoom="0.35"
     inkscape:cx="285.5"
     inkscape:cy="-221.7403"
     inkscape:document-units="px"
     inkscape:current-layer="layer1"
     showgrid="false"
     fit-margin-top="0"
     fit-margin-left="0"
     fit-margin-right="0"
     fit-margin-bottom="0"
     inkscape:window-width="1920"
     inkscape:window-height="1056"
     inkscape:window-x="0"
     inkscape:window-y="24"
     inkscape:window-maximized="1" />
  <metadata
     id="metadata3332">
    <rdf:RDF>
      <cc:Work
         rdf:about="">
        <dc:format>image/svg+xml</dc:format>
        <dc:type
           rdf:resource="http://purl.org/dc/dcmitype/StillImage" />
        <dc:title></dc:title>
      </cc:Work>
    </rdf:RDF>
  </metadata>
  <g
     inkscape:label="Laag 1"
     inkscape:groupmode="layer"
     id="layer1"
     transform="translate(-89.5,-199.80946)">
    <path
       inkscape:connector-curvature="0"
       style="fill:url(#linearGradient3323);fill-opacity:1;stroke:url(#linearGradient3325);stroke-width:12.80000019;stroke-miterlimit:4;stroke-opacity:1;stroke-dasharray:none;display:inline"
       d="m 181.64836,206.2129 c -0.58222,0.007 -1.18945,0.0276 -1.8125,0.0625 -17.36977,3.92467 -15.05447,6.41215 -25.84377,13.40625 -6.671,3.18673 -12.9977,4.793 -18.3437,5.03125 -1.4897,3.61416 -2.973,7.22365 -4.8438,10.625 -4.8414,8.80226 -10.1541,17.32894 -15.9375,25.5 -5.8024,8.19805 -12.0865,16.03374 -18.875004,23.40625 0.1764,4.21853 1.5197,6.94085 3.5938,8.78125 2.213704,1.96435 5.426504,3.01867 9.125004,3.1875 7.3969,0.33766 16.5017,-3.10537 21.1562,-7.625 0.05,-0.0545 0.1018,-0.10666 0.1563,-0.15625 12.7507,-10.14669 23.7988,-10.50888 33.5312,-7.03125 9.73249,3.47763 18.3547,10.27287 27.96877,14.1875 0.0208,-2.8e-4 0.0417,-2.8e-4 0.0625,0 8.53729,3.72989 17.75714,6.96697 26.9375,8.15626 9.43487,1.22227 18.82776,0.28137 27.375,-4.53126 7.84535,-6.32861 17.27368,-10.31003 27.03125,-11.5625 9.76591,-1.25355 19.8616,0.22652 28.96875,4.8125 0.0105,0.0103 0.021,0.0208 0.0312,0.0312 8.15623,4.2832 20.09565,5.56961 28.03125,4 3.9678,-0.7848 6.79652,-2.3353 7.78125,-3.78125 0.49236,-0.72298 0.64299,-1.36769 0.5,-2.34375 -0.13993,-0.95513 -0.68381,-2.28808 -1.90625,-3.875 -8.49535,-8.00031 -15.39022,-15.10607 -21.1875,-21.78125 -7.42569,-8.55016 -13.04418,-16.37573 -18.03125,-24.40625 -3.79157,-6.10545 -7.23206,-12.34332 -10.75,-19.09375 -1.78501,0.74156 -3.61112,1.26952 -5.46875,1.5625 -6.39806,1.00909 -13.07042,-0.71327 -18.90625,-5.59375 -5.30294,-4.87985 -12.86145,-5.92705 -21.8125,-4.84375 -6.7945,0.8223 -14.39388,2.8658 -22.40625,5.4375 -9.9318,0.53226 -14.38122,-2.69631 -18.9375,-5.875 -4.18686,-2.92095 -8.45421,-5.79846 -17.1875,-5.6875 z"
       id="path10042" />
  </g>
</svg>
