<?xml version="1.0" encoding="UTF-8" standalone="no"?>
<!-- Created with Inkscape (http://www.inkscape.org/) -->

<svg
   xmlns:dc="http://purl.org/dc/elements/1.1/"
   xmlns:cc="http://creativecommons.org/ns#"
   xmlns:rdf="http://www.w3.org/1999/02/22-rdf-syntax-ns#"
   xmlns:svg="http://www.w3.org/2000/svg"
   xmlns="http://www.w3.org/2000/svg"
   xmlns:xlink="http://www.w3.org/1999/xlink"
   xmlns:sodipodi="http://sodipodi.sourceforge.net/DTD/sodipodi-0.dtd"
   xmlns:inkscape="http://www.inkscape.org/namespaces/inkscape"
   width="173.80046"
   height="147.68378"
   id="svg3421"
   version="1.1"
   inkscape:version="0.48.4 r9939"
   sodipodi:docname="Nieuw document 13">
  <defs
     id="defs3423">
    <linearGradient
       inkscape:collect="always"
       xlink:href="#linearGradient10022"
       id="linearGradient3095"
       gradientUnits="userSpaceOnUse"
       gradientTransform="matrix(0.98851079,0,0,0.93546173,0.1228229,26.063203)"
       x1="281.59247"
       y1="77.390266"
       x2="281.59247"
       y2="236.62761" />
    <linearGradient
       id="linearGradient10022">
      <stop
         id="stop10024"
         offset="0"
         style="stop-color:#4e9a06;stop-opacity:1;" />
      <stop
         id="stop10026"
         offset="1"
         style="stop-color:#73d216;stop-opacity:1" />
    </linearGradient>
    <linearGradient
       inkscape:collect="always"
       xlink:href="#linearGradient5562"
       id="linearGradient5568"
       x1="191.57945"
       y1="179.97737"
       x2="365.38062"
       y2="179.97737"
       gradientUnits="userSpaceOnUse" />
    <linearGradient
       id="linearGradient5562">
      <stop
         style="stop-color:#3b5038;stop-opacity:1;"
         offset="0"
         id="stop5564" />
      <stop
         style="stop-color:#11a800;stop-opacity:1;"
         offset="1"
         id="stop5566" />
    </linearGradient>
    <linearGradient
       y2="236.62761"
       x2="281.59247"
       y1="77.390266"
       x1="281.59247"
       gradientTransform="matrix(0.98851079,0,0,0.93546173,-26.928671,189.87659)"
       gradientUnits="userSpaceOnUse"
       id="linearGradient3417"
       xlink:href="#linearGradient10022"
       inkscape:collect="always" />
    <linearGradient
       gradientTransform="translate(-27.051471,163.81338)"
       y2="179.97737"
       x2="365.38062"
       y1="179.97737"
       x1="191.57945"
       gradientUnits="userSpaceOnUse"
       id="linearGradient3419"
       xlink:href="#linearGradient5562"
       inkscape:collect="always" />
  </defs>
  <sodipodi:namedview
     id="base"
     pagecolor="#ffffff"
     bordercolor="#666666"
     borderopacity="1.0"
     inkscape:pageopacity="0.0"
     inkscape:pageshadow="2"
     inkscape:zoom="0.35"
     inkscape:cx="210.47149"
     inkscape:cy="-114.72954"
     inkscape:document-units="px"
     inkscape:current-layer="layer1"
     showgrid="false"
     fit-margin-top="0"
     fit-margin-left="0"
     fit-margin-right="0"
     fit-margin-bottom="0"
     inkscape:window-width="1920"
     inkscape:window-height="1056"
     inkscape:window-x="0"
     inkscape:window-y="24"
     inkscape:window-maximized="1" />
  <metadata
     id="metadata3426">
    <rdf:RDF>
      <cc:Work
         rdf:about="">
        <dc:format>image/svg+xml</dc:format>
        <dc:type
           rdf:resource="http://purl.org/dc/dcmitype/StillImage" />
        <dc:title></dc:title>
      </cc:Work>
    </rdf:RDF>
  </metadata>
  <g
     inkscape:label="Laag 1"
     inkscape:groupmode="layer"
     id="layer1"
     transform="translate(-164.52851,-269.94887)">
    <path
       inkscape:connector-curvature="0"
       style="fill:url(#linearGradient3417);fill-opacity:1;stroke:url(#linearGradient3419);stroke-width:12.80000019;stroke-miterlimit:4;stroke-opacity:1;stroke-dasharray:none;display:inline"
       d="m 254.12613,276.42466 c -2.7981,0.44781 -5.8974,3.49375 -9.0938,8.96875 -3.1963,5.475 -6.449,13.07613 -10.0937,21.65625 -3.7659,8.86554 -7.9663,18.77157 -13.131,28.53039 -4.8321,9.13049 -10.5084,18.1321 -17.4628,26.0321 -4.8851,5.55805 -9.1146,10.67052 -13.3583,15.79825 -4.22,5.09902 -8.4539,10.21314 -13.3604,15.7955 -0.02,0.0213 -0.041,0.0421 -0.062,0.0625 -4.3276,4.53388 -6.2253,8.33215 -6.5625,10.9375 -0.3372,2.60535 0.4876,4.10518 2.5625,5.375 4.1375,2.5322 13.9896,2.4716 24.9062,-2.4375 4.6514,-2.87317 6.4747,-4.82978 9.375,-6.6875 2.935,-1.87988 6.7096,-3.34326 14.75,-5.0625 0.1025,-0.0288 0.2069,-0.0496 0.3125,-0.0625 9.6404,-0.51057 14.6227,2.55555 18.75,5.28125 4.1041,2.71031 7.3901,5.05516 15.8125,4.65625 8.402,-2.53916 16.359,-4.54874 23.4688,-4.96875 7.1752,-0.42387 13.6335,0.80691 18.4375,4.9375 0.01,0.006 0.024,-0.006 0.031,0 0.022,0.0192 0.04,0.0432 0.062,0.0625 9.6403,7.55649 21.5464,5.4483 29.625,-3.8125 1.9079,-3.3054 3.0054,-7.6204 2.8125,-11.6875 -0.1956,-4.12438 -1.6389,-7.8768 -4.5313,-10.375 -0.033,-0.0405 -0.064,-0.0822 -0.094,-0.125 -8.1293,-8.20022 -15.5785,-16.8815 -22.3592,-25.95966 -6.882,-9.2138 -13.0753,-18.83644 -18.5922,-28.77993 -5.5649,-10.03003 -10.4415,-20.38652 -14.6423,-30.97915 -0.021,-0.0522 -0.042,-0.10403 -0.062,-0.15625 -2.138,-4.21834 -4.1679,-8.87323 -6.8438,-12.1875 -2.6824,-3.32249 -5.6704,-5.30959 -10.6562,-4.8125 0,0 0,0 0,0"
       id="path10046" />
  </g>
</svg>
