<?xml version="1.0" encoding="UTF-8" standalone="no"?>
<!-- Created with Inkscape (http://www.inkscape.org/) -->

<svg
   xmlns:dc="http://purl.org/dc/elements/1.1/"
   xmlns:cc="http://creativecommons.org/ns#"
   xmlns:rdf="http://www.w3.org/1999/02/22-rdf-syntax-ns#"
   xmlns:svg="http://www.w3.org/2000/svg"
   xmlns="http://www.w3.org/2000/svg"
   xmlns:xlink="http://www.w3.org/1999/xlink"
   xmlns:sodipodi="http://sodipodi.sourceforge.net/DTD/sodipodi-0.dtd"
   xmlns:inkscape="http://www.inkscape.org/namespaces/inkscape"
   width="130.21211"
   height="126.81251"
   id="svg3508"
   version="1.1"
   inkscape:version="0.48.4 r9939"
   sodipodi:docname="Nieuw document 17">
  <defs
     id="defs3510">
    <linearGradient
       inkscape:collect="always"
       xlink:href="#linearGradient6299"
       id="linearGradient3178"
       gradientUnits="userSpaceOnUse"
       gradientTransform="matrix(0.52352733,0.30225865,-0.30225865,0.52352733,266.91073,496.44902)"
       x1="170.60349"
       y1="-70.642006"
       x2="84.473587"
       y2="-103.64294" />
    <linearGradient
       id="linearGradient6299">
      <stop
         style="stop-color:#ffd543;stop-opacity:1"
         offset="0"
         id="stop6301" />
      <stop
         style="stop-color:#ffe791;stop-opacity:1"
         offset="1"
         id="stop6303" />
    </linearGradient>
  </defs>
  <sodipodi:namedview
     id="base"
     pagecolor="#ffffff"
     bordercolor="#666666"
     borderopacity="1.0"
     inkscape:pageopacity="0.0"
     inkscape:pageshadow="2"
     inkscape:zoom="0.35"
     inkscape:cx="74.391763"
     inkscape:cy="26.263407"
     inkscape:document-units="px"
     inkscape:current-layer="layer1"
     showgrid="false"
     fit-margin-top="0"
     fit-margin-left="0"
     fit-margin-right="0"
     fit-margin-bottom="0"
     inkscape:window-width="1920"
     inkscape:window-height="1056"
     inkscape:window-x="0"
     inkscape:window-y="24"
     inkscape:window-maximized="1" />
  <metadata
     id="metadata3513">
    <rdf:RDF>
      <cc:Work
         rdf:about="">
        <dc:format>image/svg+xml</dc:format>
        <dc:type
           rdf:resource="http://purl.org/dc/dcmitype/StillImage" />
        <dc:title></dc:title>
      </cc:Work>
    </rdf:RDF>
  </metadata>
  <g
     inkscape:label="Laag 1"
     inkscape:groupmode="layer"
     id="layer1"
     transform="translate(-300.60824,-431.81308)">
    <path
       style="fill:#a07d00;fill-opacity:1;fill-rule:nonzero;stroke:none;display:inline"
       d="m 400.85906,557.80863 c -8.89999,5.60905 -28.41975,-19.4771 -38.91692,-20.17057 -10.49716,-0.69347 -33.1474,21.60681 -41.23217,14.8757 -8.08478,-6.73111 9.74163,-33.04755 7.15736,-43.24524 -2.58428,-10.1977 -30.79242,-24.84819 -26.88908,-34.61729 3.90333,-9.7691 34.44042,-0.94741 43.34041,-6.55646 8.9,-5.60906 14.11665,-36.96383 24.61382,-36.27036 10.49717,0.69347 11.54371,32.46201 19.62849,39.19313 8.08477,6.73111 39.51697,2.00327 42.10124,12.20096 2.58427,10.1977 -27.30601,21.01005 -31.20933,30.77915 -3.90333,9.76911 10.30618,38.20193 1.40618,43.81098 z"
       id="path6269"
       inkscape:connector-curvature="0" />
    <path
       style="fill:url(#linearGradient3178);fill-opacity:1;fill-rule:nonzero;stroke:none;display:inline"
       d="m 394.73506,547.2157 c -7.30899,4.60634 -23.33928,-15.99527 -31.95992,-16.56477 -8.62063,-0.5695 -27.22179,17.74426 -33.86128,12.21644 -6.6395,-5.52782 8.00016,-27.13979 5.87787,-35.51448 -2.1223,-8.3747 -25.28779,-20.40619 -22.08224,-28.42891 3.20555,-8.02273 28.28366,-0.77805 35.59264,-5.3844 7.30899,-4.60635 11.59308,-30.35597 20.21371,-29.78647 8.62064,0.5695 9.4801,26.65893 16.1196,32.18675 6.63949,5.52782 32.45269,1.64516 34.57499,10.01985 2.12229,8.3747 -22.42463,17.25418 -25.63018,25.2769 -3.20555,8.02273 8.46379,31.37274 1.15481,35.97909 z"
       id="path6269-4"
       inkscape:connector-curvature="0" />
  </g>
</svg>
