<?xml version="1.0" encoding="UTF-8" standalone="no"?>
<!-- Created with Inkscape (http://www.inkscape.org/) -->

<svg
   xmlns:dc="http://purl.org/dc/elements/1.1/"
   xmlns:cc="http://creativecommons.org/ns#"
   xmlns:rdf="http://www.w3.org/1999/02/22-rdf-syntax-ns#"
   xmlns:svg="http://www.w3.org/2000/svg"
   xmlns="http://www.w3.org/2000/svg"
   xmlns:xlink="http://www.w3.org/1999/xlink"
   xmlns:sodipodi="http://sodipodi.sourceforge.net/DTD/sodipodi-0.dtd"
   xmlns:inkscape="http://www.inkscape.org/namespaces/inkscape"
   sodipodi:docname="Sapin (01) - Xmas.svg"
   inkscape:version="0.48.2 r9819"
   version="1.1"
   id="svg2"
   height="614.15698"
   width="572.55066"
   inkscape:export-filename="D:\Cliparts\sapin_01_xmas.png"
   inkscape:export-xdpi="20.0763"
   inkscape:export-ydpi="20.0763">
  <title
     id="title3441">Sapin (01) - Xmas</title>
  <sodipodi:namedview
     id="base"
     pagecolor="#ffffff"
     bordercolor="#666666"
     borderopacity="1.0"
     inkscape:pageopacity="0.0"
     inkscape:pageshadow="2"
     inkscape:zoom="0.90509668"
     inkscape:cx="296.76299"
     inkscape:cy="305.08979"
     inkscape:document-units="px"
     inkscape:current-layer="layer1"
     showgrid="false"
     inkscape:window-width="1920"
     inkscape:window-height="956"
     inkscape:window-x="0"
     inkscape:window-y="0"
     inkscape:window-maximized="1"
     inkscape:showpageshadow="false"
     inkscape:snap-global="false" />
  <defs
     id="defs4">
    <linearGradient
       id="linearGradient5562">
      <stop
         style="stop-color:#3b5038;stop-opacity:1;"
         offset="0"
         id="stop5564" />
      <stop
         style="stop-color:#11a800;stop-opacity:1;"
         offset="1"
         id="stop5566" />
    </linearGradient>
    <linearGradient
       id="linearGradient5508">
      <stop
         id="stop5510"
         offset="0"
         style="stop-color:#44fc00;stop-opacity:1;" />
      <stop
         id="stop5512"
         offset="1"
         style="stop-color:#c17d11;stop-opacity:1" />
    </linearGradient>
    <linearGradient
       id="linearGradient6299">
      <stop
         style="stop-color:#ffd543;stop-opacity:1"
         offset="0"
         id="stop6301" />
      <stop
         style="stop-color:#ffe791;stop-opacity:1"
         offset="1"
         id="stop6303" />
    </linearGradient>
    <linearGradient
       id="linearGradient10064">
      <stop
         style="stop-color:#8f5902;stop-opacity:1"
         offset="0"
         id="stop10066" />
      <stop
         style="stop-color:#c17d11;stop-opacity:1"
         offset="1"
         id="stop10068" />
    </linearGradient>
    <linearGradient
       id="linearGradient10022">
      <stop
         id="stop10024"
         offset="0"
         style="stop-color:#4e9a06;stop-opacity:1;" />
      <stop
         id="stop10026"
         offset="1"
         style="stop-color:#73d216;stop-opacity:1" />
    </linearGradient>
    <linearGradient
       inkscape:collect="always"
       xlink:href="#linearGradient10022"
       id="linearGradient6711"
       gradientUnits="userSpaceOnUse"
       x1="285.06982"
       y1="205.97632"
       x2="283.40076"
       y2="337.64514"
       gradientTransform="translate(-1.6554096,0)" />
    <linearGradient
       inkscape:collect="always"
       xlink:href="#linearGradient10022"
       id="linearGradient6727"
       gradientUnits="userSpaceOnUse"
       x1="284.39108"
       y1="309.82318"
       x2="286.43579"
       y2="420.18765" />
    <linearGradient
       inkscape:collect="always"
       xlink:href="#linearGradient10022"
       id="linearGradient6742"
       gradientUnits="userSpaceOnUse"
       gradientTransform="matrix(1,0,0,0.99112558,0,3.4561719)"
       x1="292.53595"
       y1="389.45322"
       x2="292.53119"
       y2="493.70288" />
    <linearGradient
       inkscape:collect="always"
       xlink:href="#linearGradient10022"
       id="linearGradient6765"
       gradientUnits="userSpaceOnUse"
       x1="283.0336"
       y1="453.03683"
       x2="284.7728"
       y2="581.74365" />
    <linearGradient
       inkscape:collect="always"
       xlink:href="#linearGradient10064"
       id="linearGradient6783"
       gradientUnits="userSpaceOnUse"
       x1="258.09552"
       y1="600.69366"
       x2="290.28665"
       y2="603.63269" />
    <linearGradient
       inkscape:collect="always"
       xlink:href="#linearGradient10022"
       id="linearGradient3095"
       gradientUnits="userSpaceOnUse"
       gradientTransform="matrix(0.98851079,0,0,0.93546173,0.1228229,26.063203)"
       x1="281.59247"
       y1="77.390266"
       x2="281.59247"
       y2="236.62761" />
    <linearGradient
       inkscape:collect="always"
       xlink:href="#linearGradient6299"
       id="linearGradient3178"
       gradientUnits="userSpaceOnUse"
       gradientTransform="matrix(0.52352733,0.30225865,-0.30225865,0.52352733,188.59655,91.779371)"
       x1="170.60349"
       y1="-70.642006"
       x2="84.473587"
       y2="-103.64294" />
    <linearGradient
       inkscape:collect="always"
       xlink:href="#linearGradient5562"
       id="linearGradient5568"
       x1="191.57945"
       y1="179.97737"
       x2="365.3806"
       y2="179.97737"
       gradientUnits="userSpaceOnUse" />
    <linearGradient
       inkscape:collect="always"
       xlink:href="#linearGradient5562"
       id="linearGradient5570"
       x1="154.19459"
       y1="288.63142"
       x2="409.29609"
       y2="288.63142"
       gradientUnits="userSpaceOnUse" />
    <linearGradient
       inkscape:collect="always"
       xlink:href="#linearGradient5562"
       id="linearGradient5572"
       x1="130.34579"
       y1="370.1214"
       x2="442.52505"
       y2="370.1214"
       gradientUnits="userSpaceOnUse" />
    <linearGradient
       inkscape:collect="always"
       xlink:href="#linearGradient5562"
       id="linearGradient5574"
       x1="104.92965"
       y1="445.87221"
       x2="480.13275"
       y2="445.87221"
       gradientUnits="userSpaceOnUse" />
    <linearGradient
       inkscape:collect="always"
       xlink:href="#linearGradient5562"
       id="linearGradient5576"
       x1="63.75676"
       y1="526.1171"
       x2="505.78884"
       y2="526.1171"
       gradientUnits="userSpaceOnUse" />
  </defs>
  <metadata
     id="metadata7">
    <rdf:RDF>
      <cc:Work
         rdf:about="">
        <dc:format>image/svg+xml</dc:format>
        <dc:type
           rdf:resource="http://purl.org/dc/dcmitype/StillImage" />
        <dc:title>Sapin (01) - Xmas</dc:title>
        <dc:date>2009-12-03</dc:date>
        <dc:creator>
          <cc:Agent>
            <dc:title>Jean-Victor Balin</dc:title>
          </cc:Agent>
        </dc:creator>
        <dc:publisher>
          <cc:Agent>
            <dc:title>openclipart.org</dc:title>
          </cc:Agent>
        </dc:publisher>
        <dc:language>fr-FR</dc:language>
        <dc:subject>
          <rdf:Bag>
            <rdf:li>nature</rdf:li>
            <rdf:li>tree</rdf:li>
            <rdf:li>garden</rdf:li>
            <rdf:li>forest</rdf:li>
            <rdf:li>xmas</rdf:li>
            <rdf:li>christmas</rdf:li>
          </rdf:Bag>
        </dc:subject>
        <dc:description>jean.victor.balin@gmail.com</dc:description>
        <cc:license
           rdf:resource="http://creativecommons.org/licenses/publicdomain/" />
      </cc:Work>
      <cc:License
         rdf:about="http://creativecommons.org/licenses/publicdomain/">
        <cc:permits
           rdf:resource="http://creativecommons.org/ns#Reproduction" />
        <cc:permits
           rdf:resource="http://creativecommons.org/ns#Distribution" />
        <cc:permits
           rdf:resource="http://creativecommons.org/ns#DerivativeWorks" />
      </cc:License>
    </rdf:RDF>
  </metadata>
  <g
     id="layer1"
     inkscape:groupmode="layer"
     inkscape:label="Calque 1"
     style="display:inline"
     transform="translate(9.7969272,-27.143428)">
    <path
       inkscape:connector-curvature="0"
       id="path9864"
       d="m 296.53125,545.59375 c -17.37756,-0.10986 -40.54302,8.00281 -51.25,17.71875 0.18786,21.76291 -2.05645,34.00004 -5.9375,48.5625 17.98227,0.73415 33.74381,5.75266 43.71875,13.15625 12.60595,-2.72561 24.79067,-7.70162 37.78125,-8.4375 -1.90687,-19.63899 -2.13121,-38.23755 -2.625,-57.125 -0.63283,-9.87218 -9.79759,-13.79983 -21.6875,-13.875 z"
       style="fill:#764c02;fill-opacity:1;fill-rule:nonzero;stroke:none" />
    <path
       inkscape:connector-curvature="0"
       id="path9864-9"
       d="m 294.64899,553.60116 c -15.77436,-0.0997 -36.80264,7.26449 -46.52182,16.08407 0.17052,19.75513 -1.86673,30.8633 -5.38973,44.08227 16.32328,0.66642 30.6307,5.22193 39.68539,11.94249 11.44296,-2.47416 22.50355,-6.99109 34.29566,-7.65909 -1.73095,-17.82715 -1.93459,-34.70986 -2.38283,-51.85481 -0.57445,-8.9614 -8.89369,-12.5267 -19.68667,-12.59493 z"
       style="fill:url(#linearGradient6783);fill-opacity:1;fill-rule:nonzero;stroke:none" />
    <path
       style="font-size:medium;font-style:normal;font-variant:normal;font-weight:normal;font-stretch:normal;text-indent:0;text-align:start;text-decoration:none;line-height:normal;letter-spacing:normal;word-spacing:normal;text-transform:none;direction:ltr;block-progression:tb;writing-mode:lr-tb;text-anchor:start;color:#000000;fill:#312c29;fill-opacity:1;fill-rule:nonzero;stroke:none;stroke-width:1px;marker:none;visibility:visible;display:inline;overflow:visible;enable-background:accumulate;font-family:Bitstream Vera Sans;-inkscape-font-specification:Bitstream Vera Sans"
       d="m 447.28521,551.05724 -2.64982,0.077 0.84793,20.08126 1.27497,-0.077 0.52692,-20.08126 z"
       id="path4765-8"
       sodipodi:nodetypes="ccccc"
       inkscape:connector-curvature="0" />
    <path
       style="fill:#640000;fill-opacity:1;fill-rule:nonzero;stroke:none"
       d="m 465.66813,588.96104 c 0,10.45192 -8.47296,18.92488 -18.92488,18.92488 -10.45192,0 -18.92486,-8.47296 -18.92486,-18.92488 0,-10.45191 8.47294,-18.92486 18.92486,-18.92486 10.45192,0 18.92488,8.47295 18.92488,18.92486 z"
       id="path4719-9"
       inkscape:connector-curvature="0" />
    <path
       style="fill:#fabdbd;fill-opacity:1;fill-rule:nonzero;stroke:none;display:inline"
       d="m 443.16821,585.06583 c -2.78646,1.70008 -6.01158,1.48583 -7.20349,-0.47854 -1.19192,-1.96438 0.10072,-4.93501 2.88718,-6.63508 2.78647,-1.70009 6.01158,-1.48584 7.20349,0.47854 1.19192,1.96437 -0.10071,4.935 -2.88718,6.63508 z"
       id="path5543-4-8"
       inkscape:connector-curvature="0" />
    <path
       style="font-size:medium;font-style:normal;font-variant:normal;font-weight:normal;font-stretch:normal;text-indent:0;text-align:start;text-decoration:none;line-height:normal;letter-spacing:normal;word-spacing:normal;text-transform:none;direction:ltr;block-progression:tb;writing-mode:lr-tb;text-anchor:start;color:#000000;fill:#640000;fill-opacity:1;fill-rule:nonzero;stroke:none;stroke-width:2.90793633;marker:none;visibility:visible;display:inline;overflow:visible;enable-background:accumulate;font-family:Bitstream Vera Sans;-inkscape-font-specification:Bitstream Vera Sans"
       d="m 446.69139,578.0629 c -0.74528,-1.22828 -2.1047,-1.86689 -3.58724,-1.96538 -1.48255,-0.0985 -3.12312,0.31939 -4.63815,1.24375 -1.51504,0.92435 -2.63921,2.1933 -3.23342,3.55886 -0.59421,1.36556 -0.65346,2.86973 0.0918,4.09801 0.74529,1.22829 2.11306,1.88068 3.59561,1.97917 1.48254,0.0985 3.12311,-0.3194 4.63815,-1.24375 1.51503,-0.92436 2.6392,-2.1933 3.23341,-3.55887 0.59421,-1.36556 0.6451,-2.8835 -0.10018,-4.11179 z m -1.27982,0.78085 c 0.44663,0.73608 0.45216,1.70116 0.001,2.73702 -0.45075,1.03587 -1.36101,2.09548 -2.63244,2.87121 -1.27143,0.77572 -2.64204,1.10773 -3.76665,1.03302 -1.12461,-0.0747 -1.96303,-0.53161 -2.40967,-1.2677 -0.44663,-0.73609 -0.45755,-1.67899 -0.007,-2.71485 0.45075,-1.03587 1.37478,-2.10388 2.64621,-2.8796 1.27143,-0.77573 2.62828,-1.09933 3.75288,-1.02462 1.12461,0.0747 1.96844,0.50943 2.41507,1.24552 z"
       id="path5543-2"
       inkscape:connector-curvature="0" />
    <path
       style="font-size:medium;font-style:normal;font-variant:normal;font-weight:normal;font-stretch:normal;text-indent:0;text-align:start;text-decoration:none;line-height:normal;letter-spacing:normal;word-spacing:normal;text-transform:none;direction:ltr;block-progression:tb;writing-mode:lr-tb;text-anchor:start;color:#000000;fill:#312c29;fill-opacity:1;fill-rule:nonzero;stroke:none;stroke-width:1px;marker:none;visibility:visible;display:inline;overflow:visible;enable-background:accumulate;font-family:Bitstream Vera Sans;-inkscape-font-specification:Bitstream Vera Sans"
       d="m 115.765,556.9754 -2.64982,0.077 0.84793,20.08125 1.27497,-0.077 0.52692,-20.08125 z"
       id="path4765-8-1-7-2-6"
       sodipodi:nodetypes="ccccc"
       inkscape:connector-curvature="0" />
    <path
       inkscape:connector-curvature="0"
       style="fill:#132c51;fill-opacity:1;fill-rule:nonzero;stroke:none"
       d="m 130.11502,590.11303 c 0,8.42709 -6.83151,15.2586 -15.2586,15.2586 -8.42709,0 -15.25859,-6.83151 -15.25859,-15.2586 0,-8.42709 6.8315,-15.25859 15.25859,-15.25859 8.42709,0 15.2586,6.8315 15.2586,15.25859 z"
       id="path4719-9-5-5-2-5" />
    <path
       inkscape:connector-curvature="0"
       style="fill:#cbdbed;fill-opacity:1;fill-rule:nonzero;stroke:none;display:inline"
       d="m 111.97396,586.97243 c -2.24664,1.37072 -4.84697,1.19798 -5.80797,-0.38584 -0.96101,-1.58382 0.0812,-3.97896 2.32785,-5.34968 2.24665,-1.37073 4.84697,-1.19799 5.80797,0.38584 0.96102,1.58381 -0.0812,3.97895 -2.32785,5.34968 z"
       id="path5543-4-8-7-6-2-6" />
    <path
       inkscape:connector-curvature="0"
       style="font-size:medium;font-style:normal;font-variant:normal;font-weight:normal;font-stretch:normal;text-indent:0;text-align:start;text-decoration:none;line-height:normal;letter-spacing:normal;word-spacing:normal;text-transform:none;direction:ltr;block-progression:tb;writing-mode:lr-tb;text-anchor:start;color:#000000;fill:#132c51;fill-opacity:1;fill-rule:nonzero;stroke:none;stroke-width:2.90793633;marker:none;visibility:visible;display:inline;overflow:visible;enable-background:accumulate;font-family:Bitstream Vera Sans;-inkscape-font-specification:Bitstream Vera Sans"
       d="m 114.8146,581.32616 c -0.60089,-0.99033 -1.69696,-1.50522 -2.89229,-1.58463 -1.19534,-0.0794 -2.51808,0.25751 -3.73961,1.0028 -1.22153,0.74528 -2.12792,1.7684 -2.60702,2.86941 -0.47909,1.10101 -0.52686,2.31378 0.074,3.30411 0.60091,0.99034 1.7037,1.51634 2.89904,1.59575 1.19533,0.0794 2.51808,-0.25752 3.73961,-1.0028 1.22153,-0.74529 2.12792,-1.7684 2.60701,-2.86942 0.47909,-1.10101 0.52013,-2.32488 -0.0808,-3.31522 z m -1.03188,0.62958 c 0.36011,0.59348 0.36456,1.3716 8.1e-4,2.20678 -0.36343,0.83519 -1.09735,1.68953 -2.12247,2.31498 -1.02511,0.62544 -2.1302,0.89313 -3.03694,0.83289 -0.90674,-0.0602 -1.58274,-0.42862 -1.94285,-1.02211 -0.36011,-0.59349 -0.36891,-1.35372 -0.006,-2.18891 0.36342,-0.83519 1.10844,-1.6963 2.13356,-2.32174 1.02512,-0.62545 2.11911,-0.88636 3.02584,-0.82612 0.90674,0.0602 1.5871,0.41074 1.94721,1.00423 z"
       id="path5543-2-1-1-1-1" />
    <path
       inkscape:connector-curvature="0"
       sodipodi:nodetypes="ccscccccccccccc"
       id="path9191"
       d="m 234.76752,611.30131 c -20.09072,0 -37.84869,5.32331 -48.625,13.5 11.48203,-5.54233 27.09252,-8.9375 44.3125,-8.9375 18.27415,0 34.74457,3.84387 46.375,10 -7.27469,1.55848 -13.92511,2.92628 -21.21875,3.53125 -5.39142,-0.0532 -11.27398,0.71769 -16.15625,-2.0625 l -5,3.15625 c -1.86372,6.81146 32.80699,0.28777 36.78125,-0.65625 7.32259,-1.08731 14.41748,-3.20058 21.53125,-5.1875 11.35511,-3.07989 21.27394,-5.96013 36.09375,-4.90625 10.69118,0.97877 13.74806,2.35194 26.03125,5.03125 -4.15927,-2.37778 -8.64225,-4.15812 -13.1875,-5.65625 -6.21666,-2.35432 -12.86513,-3.34418 -19.5,-3.0625 -13.50702,0.44493 -26.10737,5.67862 -39.15625,8.5 -10.81381,-8.02621 -28.40523,-13.25 -48.28125,-13.25 z"
       style="fill:#5a5148;fill-opacity:1;fill-rule:nonzero;stroke:none" />
    <path
       inkscape:connector-curvature="0"
       style="fill:url(#linearGradient6765);fill-opacity:1;stroke:url(#linearGradient5576);stroke-width:12.80000000000000071;stroke-miterlimit:4;stroke-dasharray:none;stroke-opacity:1"
       d="m 176.28125,470.5 c -5.55365,0.12641 -11.02944,1.53922 -16.40625,3.5625 -9.44972,3.5559 -18.60682,8.973 -27.5,12.59375 -2.26574,0.79991 -4.52002,1.47243 -6.6875,1.96875 -3.99393,6.28711 -8.18727,12.42815 -12.625,18.40625 -6.23099,8.39384 -12.93248,16.44497 -20.0625,24.0625 -7.13612,7.62405 -14.716356,14.81793 -22.78125,21.46875 -0.328646,4.17988 0.670385,6.98474 2.5,9.0625 1.980469,2.24908 5.106686,3.75863 8.90625,4.4375 7.599128,1.35775 17.574818,-0.91267 22.9375,-4.84375 0.17372,-0.13574 0.36246,-0.25107 0.5625,-0.34375 9.94758,-4.21545 20.74091,-5.12293 31.03125,-3.1875 10.28029,1.93355 20.05856,6.70447 28.03125,13.8125 0.0121,0.008 0.0192,0.0236 0.0312,0.0312 8.67201,5.49253 18.48343,7.07436 28.46875,6.40625 9.70648,-0.64946 19.57646,-3.42572 28.78125,-6.75 0.18285,-0.0604 0.37129,-0.10224 0.5625,-0.125 13.78874,-1.95028 26.65938,2.13381 39.09375,5.71875 12.39246,3.57286 24.3104,6.62601 36.53125,3.9375 7.19828,-2.5492 14.5286,-6.53831 22.375,-9.375 7.37085,-2.66477 15.19659,-4.31415 23.8125,-2.75 l 0,-0.0312 c 9.86671,0.39001 19.15308,3.81167 28.03125,5.875 8.87817,2.06333 17.10625,2.85101 25.5,-1.21875 0.12117,-0.0608 0.24648,-0.11306 0.375,-0.15625 7.72039,-2.41822 15.07425,-7.82589 23.03125,-12.40625 7.89044,-4.54204 16.67593,-8.26137 26.9375,-6.40625 0.0866,0.0157 0.16322,0.0149 0.25,0.0312 7.53736,0.74857 14.53103,3.11903 21.28125,5.375 7.30258,2.44058 14.31934,4.74496 21.40625,4.65625 4.20069,-1.02236 6.52042,-2.52248 7.625,-4.03125 1.12903,-1.54216 1.36516,-3.26572 0.84375,-5.65625 -1.04282,-4.78106 -5.78016,-11.34193 -11.28125,-16.5625 -0.0105,-0.0103 -0.021,-0.0208 -0.0312,-0.0312 -8.7703,-8.43284 -16.912,-17.49617 -24.4375,-27.0625 -5.20976,-7.78364 -10.48005,-13.54588 -15.1875,-18.84375 -7.1224,-3.33472 -14.40576,-7.2831 -21.875,-10.09375 -9.55878,-3.59695 -19.38531,-5.28909 -29.5,-1.21875 -7.69642,3.76867 -14.75569,9.92915 -22.25,14.78125 -7.57156,4.90211 -15.58719,8.46867 -25.15625,6.875 -10.00446,-3.88453 -19.11458,-9.48348 -28.34375,-14.8125 -9.82505,-3.44808 -19.19196,-9.69399 -29.1875,-12.15625 -10.52101,-2.90917 -19.73573,0.46041 -28.625,5.25 -8.79537,4.73899 -17.27183,10.86777 -26.4375,13.75 -9.56906,1.59367 -17.61595,-1.97289 -25.1875,-6.875 -7.49432,-4.8521 -14.52234,-11.01258 -22.21875,-14.78125 -4.42518,-1.78077 -8.80549,-2.44207 -13.125,-2.34375 z"
       id="path10054" />
    <path
       style="font-size:medium;font-style:normal;font-variant:normal;font-weight:normal;font-stretch:normal;text-indent:0;text-align:start;text-decoration:none;line-height:normal;letter-spacing:normal;word-spacing:normal;text-transform:none;direction:ltr;block-progression:tb;writing-mode:lr-tb;text-anchor:start;color:#000000;fill:#312c29;fill-opacity:1;fill-rule:nonzero;stroke:none;stroke-width:1px;marker:none;visibility:visible;display:inline;overflow:visible;enable-background:accumulate;font-family:Bitstream Vera Sans;-inkscape-font-specification:Bitstream Vera Sans"
       d="m 157.38838,466.22179 -2.64982,0.077 0.84793,20.08126 1.27497,-0.077 0.52692,-20.08126 z"
       id="path4765-8-1"
       sodipodi:nodetypes="ccccc"
       inkscape:connector-curvature="0" />
    <path
       style="fill:#644600;fill-opacity:1;fill-rule:nonzero;stroke:none"
       d="m 175.7713,504.12559 c 0,10.45192 -8.47296,18.92488 -18.92488,18.92488 -10.45192,0 -18.92486,-8.47296 -18.92486,-18.92488 0,-10.45191 8.47294,-18.92486 18.92486,-18.92486 10.45192,0 18.92488,8.47295 18.92488,18.92486 z"
       id="path4719-9-5"
       inkscape:connector-curvature="0" />
    <path
       style="fill:#fff0b9;fill-opacity:1;fill-rule:nonzero;stroke:none;display:inline"
       d="m 153.27138,500.23038 c -2.78646,1.70008 -6.01158,1.48583 -7.20349,-0.47854 -1.19192,-1.96438 0.10072,-4.93501 2.88718,-6.63508 2.78647,-1.70009 6.01158,-1.48584 7.20349,0.47854 1.19192,1.96437 -0.10071,4.935 -2.88718,6.63508 z"
       id="path5543-4-8-7"
       inkscape:connector-curvature="0" />
    <path
       style="font-size:medium;font-style:normal;font-variant:normal;font-weight:normal;font-stretch:normal;text-indent:0;text-align:start;text-decoration:none;line-height:normal;letter-spacing:normal;word-spacing:normal;text-transform:none;direction:ltr;block-progression:tb;writing-mode:lr-tb;text-anchor:start;color:#000000;fill:#644600;fill-opacity:1;fill-rule:nonzero;stroke:none;stroke-width:2.90793633;marker:none;visibility:visible;display:inline;overflow:visible;enable-background:accumulate;font-family:Bitstream Vera Sans;-inkscape-font-specification:Bitstream Vera Sans"
       d="m 156.79456,493.22745 c -0.74528,-1.22828 -2.1047,-1.86689 -3.58724,-1.96538 -1.48255,-0.0985 -3.12312,0.31939 -4.63815,1.24375 -1.51504,0.92435 -2.63921,2.1933 -3.23342,3.55886 -0.59421,1.36556 -0.65346,2.86973 0.0918,4.09801 0.74529,1.22829 2.11306,1.88068 3.59561,1.97917 1.48254,0.0985 3.12311,-0.3194 4.63815,-1.24375 1.51503,-0.92436 2.6392,-2.1933 3.23341,-3.55887 0.59421,-1.36556 0.6451,-2.8835 -0.10018,-4.11179 z m -1.27982,0.78085 c 0.44663,0.73608 0.45216,1.70116 0.001,2.73702 -0.45075,1.03587 -1.36101,2.09548 -2.63244,2.87121 -1.27143,0.77572 -2.64204,1.10773 -3.76665,1.03302 -1.12461,-0.0747 -1.96303,-0.53161 -2.40967,-1.2677 -0.44663,-0.73609 -0.45755,-1.67899 -0.007,-2.71485 0.45075,-1.03587 1.37478,-2.10388 2.64621,-2.8796 1.27143,-0.77573 2.62828,-1.09933 3.75288,-1.02462 1.12461,0.0747 1.96844,0.50943 2.41507,1.24552 z"
       id="path5543-2-1"
       inkscape:connector-curvature="0" />
    <path
       style="font-size:medium;font-style:normal;font-variant:normal;font-weight:normal;font-stretch:normal;text-indent:0;text-align:start;text-decoration:none;line-height:normal;letter-spacing:normal;word-spacing:normal;text-transform:none;direction:ltr;block-progression:tb;writing-mode:lr-tb;text-anchor:start;color:#000000;fill:#312c29;fill-opacity:1;fill-rule:nonzero;stroke:none;stroke-width:1px;marker:none;visibility:visible;display:inline;overflow:visible;enable-background:accumulate;font-family:Bitstream Vera Sans;-inkscape-font-specification:Bitstream Vera Sans"
       d="m 262.42502,469.30944 -2.64982,0.077 0.84793,20.08126 1.27497,-0.077 0.52692,-20.08126 z"
       id="path4765-8-1-7-2"
       sodipodi:nodetypes="ccccc"
       inkscape:connector-curvature="0" />
    <path
       style="fill:#640000;fill-opacity:1;fill-rule:nonzero;stroke:none"
       d="m 276.77504,502.44708 c 0,8.42709 -6.83151,15.2586 -15.2586,15.2586 -8.42709,0 -15.25859,-6.83151 -15.25859,-15.2586 0,-8.42709 6.8315,-15.25859 15.25859,-15.25859 8.42709,0 15.2586,6.8315 15.2586,15.25859 z"
       id="path4719-9-5-5-2"
       inkscape:connector-curvature="0" />
    <path
       style="fill:#fabdbd;fill-opacity:1;fill-rule:nonzero;stroke:none;display:inline"
       d="m 258.63398,499.30648 c -2.24664,1.37072 -4.84697,1.19798 -5.80797,-0.38584 -0.96101,-1.58382 0.0812,-3.97896 2.32785,-5.34968 2.24665,-1.37073 4.84697,-1.19799 5.80797,0.38584 0.96102,1.58381 -0.0812,3.97895 -2.32785,5.34968 z"
       id="path5543-4-8-7-6-2"
       inkscape:connector-curvature="0" />
    <path
       style="font-size:medium;font-style:normal;font-variant:normal;font-weight:normal;font-stretch:normal;text-indent:0;text-align:start;text-decoration:none;line-height:normal;letter-spacing:normal;word-spacing:normal;text-transform:none;direction:ltr;block-progression:tb;writing-mode:lr-tb;text-anchor:start;color:#000000;fill:#640000;fill-opacity:1;fill-rule:nonzero;stroke:none;stroke-width:2.90793633;marker:none;visibility:visible;display:inline;overflow:visible;enable-background:accumulate;font-family:Bitstream Vera Sans;-inkscape-font-specification:Bitstream Vera Sans"
       d="m 261.47462,493.66021 c -0.60089,-0.99033 -1.69696,-1.50522 -2.89229,-1.58463 -1.19534,-0.0794 -2.51808,0.25751 -3.73961,1.0028 -1.22153,0.74528 -2.12792,1.7684 -2.60702,2.86941 -0.47909,1.10101 -0.52686,2.31378 0.074,3.30411 0.60091,0.99034 1.7037,1.51634 2.89904,1.59575 1.19533,0.0794 2.51808,-0.25752 3.73961,-1.0028 1.22153,-0.74529 2.12792,-1.7684 2.60701,-2.86942 0.47909,-1.10101 0.52013,-2.32488 -0.0808,-3.31522 z m -1.03188,0.62958 c 0.36011,0.59348 0.36456,1.3716 8.1e-4,2.20678 -0.36343,0.83519 -1.09735,1.68953 -2.12247,2.31498 -1.02511,0.62544 -2.1302,0.89313 -3.03694,0.83289 -0.90674,-0.0602 -1.58274,-0.42862 -1.94285,-1.02211 -0.36011,-0.59349 -0.36891,-1.35372 -0.006,-2.18891 0.36342,-0.83519 1.10844,-1.6963 2.13356,-2.32174 1.02512,-0.62545 2.11911,-0.88636 3.02584,-0.82612 0.90674,0.0602 1.5871,0.41074 1.94721,1.00423 z"
       id="path5543-2-1-1-1"
       inkscape:connector-curvature="0" />
    <path
       inkscape:connector-curvature="0"
       style="font-size:medium;font-style:normal;font-variant:normal;font-weight:normal;font-stretch:normal;text-indent:0;text-align:start;text-decoration:none;line-height:normal;letter-spacing:normal;word-spacing:normal;text-transform:none;direction:ltr;block-progression:tb;writing-mode:lr-tb;text-anchor:start;color:#000000;fill:#312c29;fill-opacity:1;fill-rule:nonzero;stroke:none;stroke-width:1px;marker:none;visibility:visible;display:inline;overflow:visible;enable-background:accumulate;font-family:Bitstream Vera Sans;-inkscape-font-specification:Bitstream Vera Sans"
       d="m 396.23503,466.96835 -2.64982,0.077 0.84793,20.08126 1.27497,-0.077 0.52692,-20.08126 z"
       id="path4765-8-7-2"
       sodipodi:nodetypes="ccccc" />
    <path
       style="fill:#132c51;fill-opacity:1;fill-rule:nonzero;stroke:none"
       d="m 414.61795,504.87215 c 0,10.45192 -8.47296,18.92488 -18.92488,18.92488 -10.45192,0 -18.92486,-8.47296 -18.92486,-18.92488 0,-10.45191 8.47294,-18.92486 18.92486,-18.92486 10.45192,0 18.92488,8.47295 18.92488,18.92486 z"
       id="path4719-9-3-5"
       inkscape:connector-curvature="0" />
    <path
       style="fill:#cbdbed;fill-opacity:1;fill-rule:nonzero;stroke:none;display:inline"
       d="m 392.11803,500.97694 c -2.78646,1.70008 -6.01158,1.48583 -7.20349,-0.47854 -1.19192,-1.96438 0.10072,-4.93501 2.88718,-6.63508 2.78647,-1.70009 6.01158,-1.48584 7.20349,0.47854 1.19192,1.96437 -0.10071,4.935 -2.88718,6.63508 z"
       id="path5543-4-8-4-8"
       inkscape:connector-curvature="0" />
    <path
       style="font-size:medium;font-style:normal;font-variant:normal;font-weight:normal;font-stretch:normal;text-indent:0;text-align:start;text-decoration:none;line-height:normal;letter-spacing:normal;word-spacing:normal;text-transform:none;direction:ltr;block-progression:tb;writing-mode:lr-tb;text-anchor:start;color:#000000;fill:#132c51;fill-opacity:1;fill-rule:nonzero;stroke:none;stroke-width:2.90793633;marker:none;visibility:visible;display:inline;overflow:visible;enable-background:accumulate;font-family:Bitstream Vera Sans;-inkscape-font-specification:Bitstream Vera Sans"
       d="m 395.64121,493.97401 c -0.74528,-1.22828 -2.1047,-1.86689 -3.58724,-1.96538 -1.48255,-0.0985 -3.12312,0.31939 -4.63815,1.24375 -1.51504,0.92435 -2.63921,2.1933 -3.23342,3.55886 -0.59421,1.36556 -0.65346,2.86973 0.0918,4.09801 0.74529,1.22829 2.11306,1.88068 3.59561,1.97917 1.48254,0.0985 3.12311,-0.3194 4.63815,-1.24375 1.51503,-0.92436 2.6392,-2.1933 3.23341,-3.55887 0.59421,-1.36556 0.6451,-2.8835 -0.10018,-4.11179 z m -1.27982,0.78085 c 0.44663,0.73608 0.45216,1.70116 0.001,2.73702 -0.45075,1.03587 -1.36101,2.09548 -2.63244,2.87121 -1.27143,0.77572 -2.64204,1.10773 -3.76665,1.03302 -1.12461,-0.0747 -1.96303,-0.53161 -2.40967,-1.2677 -0.44663,-0.73609 -0.45755,-1.67899 -0.007,-2.71485 0.45075,-1.03587 1.37478,-2.10388 2.64621,-2.8796 1.27143,-0.77573 2.62828,-1.09933 3.75288,-1.02462 1.12461,0.0747 1.96844,0.50943 2.41507,1.24552 z"
       id="path5543-2-2-6"
       inkscape:connector-curvature="0" />
    <path
       inkscape:connector-curvature="0"
       style="fill:url(#linearGradient6742);fill-opacity:1;stroke:url(#linearGradient5574);stroke-width:12.80000000000000071;stroke-miterlimit:4;stroke-dasharray:none;stroke-opacity:1"
       d="m 291.4375,398.96875 c -8.32419,-0.0686 -16.56366,1.58166 -23.75,5.40625 -6.47178,4.48438 -14.38267,5.83978 -22.40625,5.4375 -7.88472,-0.39533 -15.88047,-2.48287 -22.8125,-5 -11.35204,-5.29802 -24.99302,-7.37573 -37.8125,-4.5 -9.24192,1.62346 -17.7421,4.98109 -25.625,8.96875 -2.02665,4.14252 -4.10264,8.24871 -6.34375,12.28125 -4.78502,8.60993 -10.18621,16.9685 -16.75,25 -6.00016,7.34184 -12.98448,14.41298 -21.34375,21.1875 -2.64557,3.6485 -3.37919,6.33249 -3.25,7.78125 0.13215,1.48202 0.72818,2.3246 2.65625,3.28125 3.8305,1.90059 12.82478,2.03866 22.5625,-1.375 0.0202,-0.008 0.0423,-0.0229 0.0625,-0.0312 8.18925,-3.36192 17.09279,-8.65577 26.65625,-12.25 9.58706,-3.6031 20.19819,-5.43487 31,-1.0625 0.0848,0.0386 0.16821,0.0803 0.25,0.125 8.09209,3.98568 14.98332,10.10492 21.90625,14.59375 6.847,4.4396 13.34786,7.2177 21.125,6 7.91244,-2.5782 15.88025,-8.2591 24.59375,-12.96875 8.79245,-4.75232 18.82223,-8.45034 30.125,-5.34375 0.0325,0.009 0.0612,0.0222 0.0937,0.0312 10.49296,2.62378 19.54426,8.71725 28.3125,11.8125 0.22814,0.0832 0.44787,0.18781 0.65625,0.3125 8.77491,5.09646 17.23944,10.25962 26.25,13.84375 7.74848,1.19205 14.21104,-1.573 21.03125,-6 6.91501,-4.48853 13.81319,-10.6076 21.90625,-14.59375 0.0818,-0.0447 0.16518,-0.0864 0.25,-0.125 10.80181,-4.37237 21.41294,-2.5406 31,1.0625 9.56346,3.59423 18.467,8.88809 26.65625,12.25 0.0202,0.008 0.0423,0.0231 0.0625,0.0312 9.73932,3.41432 18.73289,3.26976 22.5625,1.375 1.92762,-0.95372 2.52436,-1.77241 2.65625,-3.25 0.12893,-1.44442 -0.60414,-4.13238 -3.25,-7.78125 -8.37049,-6.78364 -15.33964,-13.86233 -21.34375,-21.21875 -6.56673,-8.04574 -11.96433,-16.40586 -16.75,-25.03125 -3.94254,-7.10577 -7.46257,-14.41281 -10.875,-21.84375 -6.16201,-3.12805 -11.93665,-6.62675 -19.0625,-5.78125 -16.03302,4.29276 -5.95153,24.79388 -23.8125,26.90625 -10.4784,-1.3537 -19.95895,-4.74008 -29.09375,-8.78125 -9.33433,-4.12944 -18.30998,-8.94818 -27.625,-12.9375 -7.88404,-4.25119 -17.34977,-7.05848 -26.90625,-7.6875 -1.18932,-0.0783 -2.37333,-0.1152 -3.5625,-0.125 z"
       id="path10050" />
    <path
       style="font-size:medium;font-style:normal;font-variant:normal;font-weight:normal;font-stretch:normal;text-indent:0;text-align:start;text-decoration:none;line-height:normal;letter-spacing:normal;word-spacing:normal;text-transform:none;direction:ltr;block-progression:tb;writing-mode:lr-tb;text-anchor:start;color:#000000;fill:#312c29;fill-opacity:1;fill-rule:nonzero;stroke:none;stroke-width:1px;marker:none;visibility:visible;display:inline;overflow:visible;enable-background:accumulate;font-family:Bitstream Vera Sans;-inkscape-font-specification:Bitstream Vera Sans"
       d="m 183.86473,391.569 -2.64982,0.077 0.84793,20.08126 1.27497,-0.077 0.52692,-20.08126 z"
       id="path4765-8-1-7-2-2-0"
       sodipodi:nodetypes="ccccc"
       inkscape:connector-curvature="0" />
    <path
       style="fill:#3b2242;fill-opacity:1;fill-rule:nonzero;stroke:none"
       d="m 198.21475,424.70664 c 0,8.42709 -6.83151,15.2586 -15.2586,15.2586 -8.42709,0 -15.25859,-6.83151 -15.25859,-15.2586 0,-8.42709 6.8315,-15.25859 15.25859,-15.25859 8.42709,0 15.2586,6.8315 15.2586,15.25859 z"
       id="path4719-9-5-5-2-4-0"
       inkscape:connector-curvature="0" />
    <path
       style="fill:#e4d4e2;fill-opacity:1;fill-rule:nonzero;stroke:none;display:inline"
       d="m 180.07369,421.56604 c -2.24664,1.37072 -4.84697,1.19798 -5.80797,-0.38584 -0.96101,-1.58382 0.0812,-3.97895 2.32785,-5.34967 2.24665,-1.37073 4.84697,-1.19799 5.80797,0.38583 0.96102,1.58382 -0.0812,3.97895 -2.32785,5.34968 z"
       id="path5543-4-8-7-6-2-65-1"
       inkscape:connector-curvature="0" />
    <path
       style="font-size:medium;font-style:normal;font-variant:normal;font-weight:normal;font-stretch:normal;text-indent:0;text-align:start;text-decoration:none;line-height:normal;letter-spacing:normal;word-spacing:normal;text-transform:none;direction:ltr;block-progression:tb;writing-mode:lr-tb;text-anchor:start;color:#000000;fill:#3b2242;fill-opacity:1;fill-rule:nonzero;stroke:none;stroke-width:2.90793633;marker:none;visibility:visible;display:inline;overflow:visible;enable-background:accumulate;font-family:Bitstream Vera Sans;-inkscape-font-specification:Bitstream Vera Sans"
       d="m 182.91433,415.91978 c -0.60089,-0.99033 -1.69696,-1.50523 -2.89229,-1.58464 -1.19534,-0.0794 -2.51808,0.25752 -3.73961,1.0028 -1.22153,0.74528 -2.12792,1.7684 -2.60702,2.86941 -0.47909,1.10101 -0.52686,2.31379 0.074,3.30411 0.60091,0.99034 1.7037,1.51634 2.89904,1.59575 1.19533,0.0794 2.51808,-0.25752 3.73961,-1.00279 1.22153,-0.7453 2.12792,-1.7684 2.60701,-2.86942 0.47909,-1.10101 0.52013,-2.32488 -0.0808,-3.31522 z m -1.03188,0.62957 c 0.36011,0.59348 0.36456,1.3716 8.1e-4,2.20678 -0.36343,0.83519 -1.09735,1.68953 -2.12247,2.31498 -1.02511,0.62544 -2.1302,0.89313 -3.03694,0.83289 -0.90674,-0.0602 -1.58274,-0.42862 -1.94285,-1.02211 -0.36011,-0.59349 -0.36891,-1.35372 -0.006,-2.18891 0.36342,-0.83519 1.10844,-1.6963 2.13356,-2.32174 1.02512,-0.62545 2.11911,-0.88636 3.02584,-0.82612 0.90674,0.0602 1.5871,0.41074 1.94721,1.00423 z"
       id="path5543-2-1-1-1-0-3"
       inkscape:connector-curvature="0" />
    <path
       inkscape:connector-curvature="0"
       style="font-size:medium;font-style:normal;font-variant:normal;font-weight:normal;font-stretch:normal;text-indent:0;text-align:start;text-decoration:none;line-height:normal;letter-spacing:normal;word-spacing:normal;text-transform:none;direction:ltr;block-progression:tb;writing-mode:lr-tb;text-anchor:start;color:#000000;fill:#312c29;fill-opacity:1;fill-rule:nonzero;stroke:none;stroke-width:1px;marker:none;visibility:visible;display:inline;overflow:visible;enable-background:accumulate;font-family:Bitstream Vera Sans;-inkscape-font-specification:Bitstream Vera Sans"
       d="m 313.42752,390.6002 -2.64982,0.077 0.84793,20.08126 1.27497,-0.077 0.52692,-20.08126 z"
       id="path4765-8-1-7-2-61"
       sodipodi:nodetypes="ccccc" />
    <path
       inkscape:connector-curvature="0"
       style="fill:#644600;fill-opacity:1;fill-rule:nonzero;stroke:none"
       d="m 327.77754,423.73784 c 0,8.42709 -6.83151,15.2586 -15.2586,15.2586 -8.42709,0 -15.25859,-6.83151 -15.25859,-15.2586 0,-8.42709 6.8315,-15.25859 15.25859,-15.25859 8.42709,0 15.2586,6.8315 15.2586,15.25859 z"
       id="path4719-9-5-5-2-8" />
    <path
       inkscape:connector-curvature="0"
       style="fill:#fff0b9;fill-opacity:1;fill-rule:nonzero;stroke:none;display:inline"
       d="m 309.63648,420.59724 c -2.24664,1.37072 -4.84697,1.19798 -5.80797,-0.38584 -0.96101,-1.58382 0.0812,-3.97896 2.32785,-5.34968 2.24665,-1.37073 4.84697,-1.19799 5.80797,0.38584 0.96102,1.58381 -0.0812,3.97895 -2.32785,5.34968 z"
       id="path5543-4-8-7-6-2-9" />
    <path
       inkscape:connector-curvature="0"
       style="font-size:medium;font-style:normal;font-variant:normal;font-weight:normal;font-stretch:normal;text-indent:0;text-align:start;text-decoration:none;line-height:normal;letter-spacing:normal;word-spacing:normal;text-transform:none;direction:ltr;block-progression:tb;writing-mode:lr-tb;text-anchor:start;color:#000000;fill:#644600;fill-opacity:1;fill-rule:nonzero;stroke:none;stroke-width:2.90793633;marker:none;visibility:visible;display:inline;overflow:visible;enable-background:accumulate;font-family:Bitstream Vera Sans;-inkscape-font-specification:Bitstream Vera Sans"
       d="m 312.47712,414.95097 c -0.60089,-0.99033 -1.69696,-1.50522 -2.89229,-1.58463 -1.19534,-0.0794 -2.51808,0.25751 -3.73961,1.0028 -1.22153,0.74528 -2.12792,1.7684 -2.60702,2.86941 -0.47909,1.10101 -0.52686,2.31378 0.074,3.30411 0.60091,0.99034 1.7037,1.51634 2.89904,1.59575 1.19533,0.0794 2.51808,-0.25752 3.73961,-1.0028 1.22153,-0.74529 2.12792,-1.7684 2.60701,-2.86942 0.47909,-1.10101 0.52013,-2.32488 -0.0808,-3.31522 z m -1.03188,0.62958 c 0.36011,0.59348 0.36456,1.3716 8.1e-4,2.20678 -0.36343,0.83519 -1.09735,1.68953 -2.12247,2.31498 -1.02511,0.62544 -2.1302,0.89313 -3.03694,0.83289 -0.90674,-0.0602 -1.58274,-0.42862 -1.94285,-1.02211 -0.36011,-0.59349 -0.36891,-1.35372 -0.006,-2.18891 0.36342,-0.83519 1.10844,-1.6963 2.13356,-2.32174 1.02512,-0.62545 2.11911,-0.88636 3.02584,-0.82612 0.90674,0.0602 1.5871,0.41074 1.94721,1.00423 z"
       id="path5543-2-1-1-1-6" />
    <path
       inkscape:connector-curvature="0"
       style="fill:url(#linearGradient6727);fill-opacity:1;stroke:url(#linearGradient5572);stroke-width:12.80000000000000071;stroke-miterlimit:4;stroke-dasharray:none;stroke-opacity:1"
       d="m 218.1875,320.0625 c -6.96079,-0.15996 -14.47886,2.28865 -23.1875,9.21875 -4.05912,3.9415 -10.43056,7.00854 -16.9375,8.28125 -0.73701,1.6921 -1.4983,3.38192 -2.28125,5.0625 -4.43839,9.52689 -9.66155,18.8187 -16.09375,27.5625 -6.11067,8.30672 -13.31544,16.11156 -22,23.09375 -1.08973,1.82911 -1.15648,3.21689 -0.59375,4.6875 0.58751,1.53536 2.04155,3.20027 4.15625,4.5625 4.19487,2.70222 10.7572,3.92843 15.53125,2.375 8.96648,-4.95898 18.9266,-9.4605 30.0625,-11.4375 0.042,-0.009 0.083,-0.022 0.125,-0.0312 12.80803,-2.84023 26.25171,-0.76741 37.53125,4.4375 l 0,-0.0312 c 6.29772,2.2868 13.48121,4.12561 20.4375,4.53125 7.35638,0.42898 14.46047,-0.74332 20.0625,-4.625 0.0908,-0.0573 0.18466,-0.10945 0.28125,-0.15625 8.32643,-4.43136 17.86173,-5.98506 27.28125,-5.40625 9.5492,0.58678 18.97939,3.36541 26.90625,7.59375 0.0809,0.0431 0.16945,0.0816 0.25,0.125 8.78452,3.77842 17.15075,8.18033 25.6875,11.96875 8.5995,3.81627 17.37222,7.00999 26.96875,8.3125 3.43643,-0.46796 5.1311,-1.56054 6.375,-3.125 1.28708,-1.61877 2.10295,-4.00398 2.90625,-6.78125 0.8033,-2.77727 1.61562,-5.90951 3.4375,-8.84375 1.82188,-2.93424 4.83466,-5.5282 9.28125,-6.71875 0.13375,-0.0305 0.26952,-0.0514 0.40625,-0.0625 7.71262,-0.91511 13.78429,2.72178 19.40625,5.59375 5.59554,2.85848 10.68763,5.09136 17.65625,3.5625 3.10386,-1.07463 4.18538,-2.16304 4.25,-2.1875 -0.0112,-0.0208 -0.0122,-0.0381 -0.0625,-0.15625 -0.14239,-0.33426 -0.56795,-1.00701 -1.3125,-1.8125 -2.97819,-3.22196 -10.37795,-8.33643 -18.03125,-15.4375 -0.0541,-0.0501 -0.10619,-0.10219 -0.15625,-0.15625 -5.852,-6.43317 -10.06708,-11.97889 -13.21875,-16.90625 -4.92291,-7.69653 -7.25623,-13.86226 -9.21875,-19.375 -1.18242,-3.32144 -2.21296,-6.36868 -3.625,-9.46875 -4.80422,-0.84687 -9.54788,-2.31283 -13.59375,-4.4375 -9.37969,-4.72322 -19.77846,-6.23992 -29.875,-4.90625 -10.06332,1.32928 -19.81749,5.49809 -27.875,12.09375 -9.63079,5.42272 -20.11272,6.52757 -30.53125,5.25 -10.36778,-1.27134 -20.6679,-4.89556 -30.0625,-9 -11.1912,-4.5568 -20.77855,-12.23638 -31.125,-15.59375 -2.98286,-0.96792 -6.05475,-1.58354 -9.21875,-1.65625 z m 217.90625,81.5625 c 0.0204,0.038 0.0201,-0.003 0.0312,-0.0312 0.002,-0.004 -0.0282,0.0301 -0.0312,0.0312 z"
       id="path10038" />
    <path
       style="font-size:medium;font-style:normal;font-variant:normal;font-weight:normal;font-stretch:normal;text-indent:0;text-align:start;text-decoration:none;line-height:normal;letter-spacing:normal;word-spacing:normal;text-transform:none;direction:ltr;block-progression:tb;writing-mode:lr-tb;text-anchor:start;color:#000000;fill:#312c29;fill-opacity:1;fill-rule:nonzero;stroke:none;stroke-width:1px;marker:none;visibility:visible;display:inline;overflow:visible;enable-background:accumulate;font-family:Bitstream Vera Sans;-inkscape-font-specification:Bitstream Vera Sans"
       d="m 363.52123,320.31735 -2.64982,0.077 0.84793,20.08126 1.27497,-0.077 0.52692,-20.08126 z"
       id="path4765-8-7-4"
       sodipodi:nodetypes="ccccc"
       inkscape:connector-curvature="0" />
    <path
       style="fill:#640000;fill-opacity:1;fill-rule:nonzero;stroke:none"
       d="m 381.90415,358.22115 c 0,10.45192 -8.47296,18.92488 -18.92488,18.92488 -10.45192,0 -18.92486,-8.47296 -18.92486,-18.92488 0,-10.45191 8.47294,-18.92486 18.92486,-18.92486 10.45192,0 18.92488,8.47295 18.92488,18.92486 z"
       id="path4719-9-3-9"
       inkscape:connector-curvature="0" />
    <path
       style="fill:#fabdbd;fill-opacity:1;fill-rule:nonzero;stroke:none;display:inline"
       d="m 359.40423,354.32594 c -2.78646,1.70008 -6.01158,1.48583 -7.20349,-0.47854 -1.19192,-1.96438 0.10072,-4.93501 2.88718,-6.63508 2.78647,-1.70009 6.01158,-1.48584 7.20349,0.47854 1.19192,1.96437 -0.10071,4.935 -2.88718,6.63508 z"
       id="path5543-4-8-4-4"
       inkscape:connector-curvature="0" />
    <path
       style="font-size:medium;font-style:normal;font-variant:normal;font-weight:normal;font-stretch:normal;text-indent:0;text-align:start;text-decoration:none;line-height:normal;letter-spacing:normal;word-spacing:normal;text-transform:none;direction:ltr;block-progression:tb;writing-mode:lr-tb;text-anchor:start;color:#000000;fill:#640000;fill-opacity:1;fill-rule:nonzero;stroke:none;stroke-width:2.90793633;marker:none;visibility:visible;display:inline;overflow:visible;enable-background:accumulate;font-family:Bitstream Vera Sans;-inkscape-font-specification:Bitstream Vera Sans"
       d="m 362.92741,347.32301 c -0.74528,-1.22828 -2.1047,-1.86689 -3.58724,-1.96538 -1.48255,-0.0985 -3.12312,0.31939 -4.63815,1.24375 -1.51504,0.92435 -2.63921,2.1933 -3.23342,3.55886 -0.59421,1.36556 -0.65346,2.86973 0.0918,4.09801 0.74529,1.22829 2.11306,1.88068 3.59561,1.97917 1.48254,0.0985 3.12311,-0.3194 4.63815,-1.24375 1.51503,-0.92436 2.6392,-2.1933 3.23341,-3.55887 0.59421,-1.36556 0.6451,-2.8835 -0.10018,-4.11179 z m -1.27982,0.78085 c 0.44663,0.73608 0.45216,1.70116 0.001,2.73702 -0.45075,1.03587 -1.36101,2.09548 -2.63244,2.87121 -1.27143,0.77572 -2.64204,1.10773 -3.76665,1.03302 -1.12461,-0.0747 -1.96303,-0.53161 -2.40967,-1.2677 -0.44663,-0.73609 -0.45755,-1.67899 -0.007,-2.71485 0.45075,-1.03587 1.37478,-2.10388 2.64621,-2.8796 1.27143,-0.77573 2.62828,-1.09933 3.75288,-1.02462 1.12461,0.0747 1.96844,0.50943 2.41507,1.24552 z"
       id="path5543-2-2-60"
       inkscape:connector-curvature="0" />
    <path
       style="font-size:medium;font-style:normal;font-variant:normal;font-weight:normal;font-stretch:normal;text-indent:0;text-align:start;text-decoration:none;line-height:normal;letter-spacing:normal;word-spacing:normal;text-transform:none;direction:ltr;block-progression:tb;writing-mode:lr-tb;text-anchor:start;color:#000000;fill:#312c29;fill-opacity:1;fill-rule:nonzero;stroke:none;stroke-width:1px;marker:none;visibility:visible;display:inline;overflow:visible;enable-background:accumulate;font-family:Bitstream Vera Sans;-inkscape-font-specification:Bitstream Vera Sans"
       d="m 246.68183,320.26209 -2.64982,0.077 0.84793,20.08125 1.27497,-0.077 0.52692,-20.08125 z"
       id="path4765-8-1-7-2-6-9"
       sodipodi:nodetypes="ccccc"
       inkscape:connector-curvature="0" />
    <path
       inkscape:connector-curvature="0"
       style="fill:#132c51;fill-opacity:1;fill-rule:nonzero;stroke:none"
       d="m 261.03185,353.39973 c 0,8.42709 -6.83151,15.2586 -15.2586,15.2586 -8.42709,0 -15.25859,-6.83151 -15.25859,-15.2586 0,-8.42709 6.8315,-15.25859 15.25859,-15.25859 8.42709,0 15.2586,6.8315 15.2586,15.25859 z"
       id="path4719-9-5-5-2-5-7" />
    <path
       inkscape:connector-curvature="0"
       style="fill:#cbdbed;fill-opacity:1;fill-rule:nonzero;stroke:none;display:inline"
       d="m 242.89079,350.25913 c -2.24664,1.37072 -4.84697,1.19798 -5.80797,-0.38584 -0.96101,-1.58382 0.0812,-3.97896 2.32785,-5.34968 2.24665,-1.37073 4.84697,-1.19799 5.80797,0.38584 0.96102,1.58381 -0.0812,3.97895 -2.32785,5.34968 z"
       id="path5543-4-8-7-6-2-6-5" />
    <path
       inkscape:connector-curvature="0"
       style="font-size:medium;font-style:normal;font-variant:normal;font-weight:normal;font-stretch:normal;text-indent:0;text-align:start;text-decoration:none;line-height:normal;letter-spacing:normal;word-spacing:normal;text-transform:none;direction:ltr;block-progression:tb;writing-mode:lr-tb;text-anchor:start;color:#000000;fill:#132c51;fill-opacity:1;fill-rule:nonzero;stroke:none;stroke-width:2.90793633;marker:none;visibility:visible;display:inline;overflow:visible;enable-background:accumulate;font-family:Bitstream Vera Sans;-inkscape-font-specification:Bitstream Vera Sans"
       d="m 245.73143,344.61286 c -0.60089,-0.99033 -1.69696,-1.50522 -2.89229,-1.58463 -1.19534,-0.0794 -2.51808,0.25751 -3.73961,1.0028 -1.22153,0.74528 -2.12792,1.7684 -2.60702,2.86941 -0.47909,1.10101 -0.52686,2.31378 0.074,3.30411 0.60091,0.99034 1.7037,1.51634 2.89904,1.59575 1.19533,0.0794 2.51808,-0.25752 3.73961,-1.0028 1.22153,-0.74529 2.12792,-1.7684 2.60701,-2.86942 0.47909,-1.10101 0.52013,-2.32488 -0.0808,-3.31522 z m -1.03188,0.62958 c 0.36011,0.59348 0.36456,1.3716 8.1e-4,2.20678 -0.36343,0.83519 -1.09735,1.68953 -2.12247,2.31498 -1.02511,0.62544 -2.1302,0.89313 -3.03694,0.83289 -0.90674,-0.0602 -1.58274,-0.42862 -1.94285,-1.02211 -0.36011,-0.59349 -0.36891,-1.35372 -0.006,-2.18891 0.36342,-0.83519 1.10844,-1.6963 2.13356,-2.32174 1.02512,-0.62545 2.11911,-0.88636 3.02584,-0.82612 0.90674,0.0602 1.5871,0.41074 1.94721,1.00423 z"
       id="path5543-2-1-1-1-1-4" />
    <path
       inkscape:connector-curvature="0"
       style="fill:url(#linearGradient6711);fill-opacity:1;stroke:url(#linearGradient5570);stroke-width:12.80000000000000071;stroke-miterlimit:4;stroke-dasharray:none;stroke-opacity:1"
       d="m 246.25084,239.625 c -0.58222,0.007 -1.18945,0.0276 -1.8125,0.0625 -17.36977,3.92467 -15.05446,6.41215 -25.84375,13.40625 -6.67105,3.18673 -12.99768,4.793 -18.34375,5.03125 -1.48968,3.61416 -2.97294,7.22365 -4.84375,10.625 -4.84141,8.80226 -10.15414,17.32894 -15.9375,25.5 -5.80246,8.19805 -12.08652,16.03374 -18.875,23.40625 0.17633,4.21853 1.51968,6.94085 3.59375,8.78125 2.21377,1.96435 5.42655,3.01867 9.125,3.1875 7.39691,0.33766 16.50173,-3.10537 21.15625,-7.625 0.0496,-0.0545 0.10175,-0.10666 0.15625,-0.15625 12.75073,-10.14669 23.79878,-10.50888 33.53125,-7.03125 9.73247,3.47763 18.35468,10.27287 27.96875,14.1875 0.0208,-2.8e-4 0.0417,-2.8e-4 0.0625,0 8.53729,3.72989 17.75714,6.96696 26.9375,8.15625 9.43487,1.22227 18.82776,0.28137 27.375,-4.53125 7.84535,-6.32861 17.27368,-10.31003 27.03125,-11.5625 9.76591,-1.25355 19.8616,0.22652 28.96875,4.8125 0.0105,0.0103 0.021,0.0208 0.0312,0.0312 8.15623,4.2832 20.09565,5.56961 28.03125,4 3.9678,-0.7848 6.79652,-2.3353 7.78125,-3.78125 0.49236,-0.72298 0.64299,-1.36769 0.5,-2.34375 -0.13993,-0.95513 -0.68381,-2.28808 -1.90625,-3.875 -8.49535,-8.00031 -15.39022,-15.10607 -21.1875,-21.78125 -7.42569,-8.55016 -13.04418,-16.37573 -18.03125,-24.40625 -3.79157,-6.10545 -7.23206,-12.34332 -10.75,-19.09375 -1.78501,0.74156 -3.61112,1.26952 -5.46875,1.5625 -6.39806,1.00909 -13.07042,-0.71327 -18.90625,-5.59375 -5.30294,-4.87985 -12.86145,-5.92705 -21.8125,-4.84375 -6.7945,0.8223 -14.39388,2.8658 -22.40625,5.4375 -9.9318,0.53226 -14.38122,-2.69631 -18.9375,-5.875 -4.18686,-2.92095 -8.45421,-5.79846 -17.1875,-5.6875 z"
       id="path10042" />
    <path
       inkscape:connector-curvature="0"
       style="font-size:medium;font-style:normal;font-variant:normal;font-weight:normal;font-stretch:normal;text-indent:0;text-align:start;text-decoration:none;line-height:normal;letter-spacing:normal;word-spacing:normal;text-transform:none;direction:ltr;block-progression:tb;writing-mode:lr-tb;text-anchor:start;color:#000000;fill:#312c29;fill-opacity:1;fill-rule:nonzero;stroke:none;stroke-width:1px;marker:none;visibility:visible;display:inline;overflow:visible;enable-background:accumulate;font-family:Bitstream Vera Sans;-inkscape-font-specification:Bitstream Vera Sans"
       d="m 313.04888,231.38688 -2.64982,0.077 0.84793,20.08125 1.27497,-0.077 0.52692,-20.08125 z"
       id="path4765-8-1-7-2-6-9-1"
       sodipodi:nodetypes="ccccc" />
    <path
       inkscape:connector-curvature="0"
       style="fill:#3b2242;fill-opacity:1;fill-rule:nonzero;stroke:none"
       d="m 327.3989,264.52451 c 0,8.42709 -6.83151,15.2586 -15.2586,15.2586 -8.42709,0 -15.25859,-6.83151 -15.25859,-15.2586 0,-8.42709 6.8315,-15.25859 15.25859,-15.25859 8.42709,0 15.2586,6.8315 15.2586,15.25859 z"
       id="path4719-9-5-5-2-5-7-3" />
    <path
       inkscape:connector-curvature="0"
       style="fill:#e4d4e2;fill-opacity:1;fill-rule:nonzero;stroke:none;display:inline"
       d="m 309.25784,261.38391 c -2.24664,1.37072 -4.84697,1.19798 -5.80797,-0.38584 -0.96101,-1.58382 0.0812,-3.97895 2.32785,-5.34967 2.24665,-1.37073 4.84697,-1.19799 5.80797,0.38583 0.96102,1.58382 -0.0812,3.97895 -2.32785,5.34968 z"
       id="path5543-4-8-7-6-2-6-5-4" />
    <path
       inkscape:connector-curvature="0"
       style="font-size:medium;font-style:normal;font-variant:normal;font-weight:normal;font-stretch:normal;text-indent:0;text-align:start;text-decoration:none;line-height:normal;letter-spacing:normal;word-spacing:normal;text-transform:none;direction:ltr;block-progression:tb;writing-mode:lr-tb;text-anchor:start;color:#000000;fill:#3b2242;fill-opacity:1;fill-rule:nonzero;stroke:none;stroke-width:2.90793633;marker:none;visibility:visible;display:inline;overflow:visible;enable-background:accumulate;font-family:Bitstream Vera Sans;-inkscape-font-specification:Bitstream Vera Sans"
       d="m 312.09848,255.73765 c -0.60089,-0.99033 -1.69696,-1.50522 -2.89229,-1.58464 -1.19534,-0.0794 -2.51808,0.25751 -3.73961,1.0028 -1.22153,0.74528 -2.12792,1.7684 -2.60702,2.86941 -0.47909,1.10101 -0.52686,2.31379 0.074,3.30411 0.60091,0.99034 1.7037,1.51634 2.89904,1.59575 1.19533,0.0794 2.51808,-0.25752 3.73961,-1.0028 1.22153,-0.74528 2.12792,-1.76839 2.60701,-2.86942 0.47909,-1.10101 0.52013,-2.32488 -0.0808,-3.31521 z m -1.03188,0.62957 c 0.36011,0.59348 0.36456,1.3716 8.1e-4,2.20678 -0.36343,0.83519 -1.09735,1.68953 -2.12247,2.31498 -1.02511,0.62544 -2.1302,0.89313 -3.03694,0.83289 -0.90674,-0.0602 -1.58274,-0.42862 -1.94285,-1.02211 -0.36011,-0.59349 -0.36891,-1.35372 -0.006,-2.18891 0.36342,-0.83519 1.10844,-1.6963 2.13356,-2.32174 1.02512,-0.62545 2.11911,-0.88636 3.02584,-0.82612 0.90674,0.0602 1.5871,0.41074 1.94721,1.00423 z"
       id="path5543-2-1-1-1-1-4-1" />
    <path
       inkscape:connector-curvature="0"
       style="font-size:medium;font-style:normal;font-variant:normal;font-weight:normal;font-stretch:normal;text-indent:0;text-align:start;text-decoration:none;line-height:normal;letter-spacing:normal;word-spacing:normal;text-transform:none;direction:ltr;block-progression:tb;writing-mode:lr-tb;text-anchor:start;color:#000000;fill:#312c29;fill-opacity:1;fill-rule:nonzero;stroke:none;stroke-width:1px;marker:none;visibility:visible;display:inline;overflow:visible;enable-background:accumulate;font-family:Bitstream Vera Sans;-inkscape-font-specification:Bitstream Vera Sans"
       d="m 214.41549,242.23435 -2.64982,0.077 0.84793,20.08125 1.27497,-0.077 0.52692,-20.08125 z"
       id="path4765-8-1-7-2-6-9-1-9"
       sodipodi:nodetypes="ccccc" />
    <path
       inkscape:connector-curvature="0"
       style="fill:#640000;fill-opacity:1;fill-rule:nonzero;stroke:none"
       d="m 228.76551,275.37198 c 0,8.42709 -6.83151,15.2586 -15.2586,15.2586 -8.42709,0 -15.25859,-6.83151 -15.25859,-15.2586 0,-8.42709 6.8315,-15.25859 15.25859,-15.25859 8.42709,0 15.2586,6.8315 15.2586,15.25859 z"
       id="path4719-9-5-5-2-5-7-3-7" />
    <path
       inkscape:connector-curvature="0"
       style="fill:#fabdbd;fill-opacity:1;fill-rule:nonzero;stroke:none;display:inline"
       d="m 210.62445,272.23138 c -2.24664,1.37072 -4.84697,1.19798 -5.80797,-0.38584 -0.96101,-1.58382 0.0812,-3.97895 2.32785,-5.34967 2.24665,-1.37073 4.84697,-1.19799 5.80797,0.38583 0.96102,1.58382 -0.0812,3.97895 -2.32785,5.34968 z"
       id="path5543-4-8-7-6-2-6-5-4-7" />
    <path
       inkscape:connector-curvature="0"
       style="font-size:medium;font-style:normal;font-variant:normal;font-weight:normal;font-stretch:normal;text-indent:0;text-align:start;text-decoration:none;line-height:normal;letter-spacing:normal;word-spacing:normal;text-transform:none;direction:ltr;block-progression:tb;writing-mode:lr-tb;text-anchor:start;color:#000000;fill:#640000;fill-opacity:1;fill-rule:nonzero;stroke:none;stroke-width:2.90793633;marker:none;visibility:visible;display:inline;overflow:visible;enable-background:accumulate;font-family:Bitstream Vera Sans;-inkscape-font-specification:Bitstream Vera Sans"
       d="m 213.46509,266.58512 c -0.60089,-0.99033 -1.69696,-1.50522 -2.89229,-1.58464 -1.19534,-0.0794 -2.51808,0.25751 -3.73961,1.0028 -1.22153,0.74528 -2.12792,1.7684 -2.60702,2.86941 -0.47909,1.10101 -0.52686,2.31379 0.074,3.30411 0.60091,0.99034 1.7037,1.51634 2.89904,1.59575 1.19533,0.0794 2.51808,-0.25752 3.73961,-1.0028 1.22153,-0.74528 2.12792,-1.76839 2.60701,-2.86942 0.47909,-1.10101 0.52013,-2.32488 -0.0808,-3.31521 z m -1.03188,0.62957 c 0.36011,0.59348 0.36456,1.3716 8.1e-4,2.20678 -0.36343,0.83519 -1.09735,1.68953 -2.12247,2.31498 -1.02511,0.62544 -2.1302,0.89313 -3.03694,0.83289 -0.90674,-0.0602 -1.58274,-0.42862 -1.94285,-1.02211 -0.36011,-0.59349 -0.36891,-1.35372 -0.006,-2.18891 0.36342,-0.83519 1.10844,-1.6963 2.13356,-2.32174 1.02512,-0.62545 2.11911,-0.88636 3.02584,-0.82612 0.90674,0.0602 1.5871,0.41074 1.94721,1.00423 z"
       id="path5543-2-1-1-1-1-4-1-2" />
    <path
       inkscape:connector-curvature="0"
       style="fill:url(#linearGradient3095);fill-opacity:1;stroke:url(#linearGradient5568);stroke-width:12.80000000000000071;stroke-miterlimit:4;stroke-dasharray:none;stroke-opacity:1"
       d="m 281.17758,112.61127 c -2.79811,0.44781 -5.8974,3.49375 -9.09375,8.96875 -3.19635,5.475 -6.44906,13.07613 -10.09375,21.65625 -3.76593,8.86554 -7.9663,18.77157 -13.13097,28.53039 -4.83214,9.13049 -10.50841,18.1321 -17.46278,26.03211 -4.88516,5.55805 -9.11469,10.67052 -13.35837,15.79825 -4.21993,5.09902 -8.45386,10.21314 -13.36038,15.7955 -0.0204,0.0213 -0.0412,0.0421 -0.0625,0.0625 -4.32756,4.53388 -6.22526,8.33215 -6.5625,10.9375 -0.33724,2.60535 0.48765,4.10518 2.5625,5.375 4.13754,2.5322 13.98965,2.4716 24.90625,-2.4375 4.65136,-2.87317 6.47468,-4.82978 9.375,-6.6875 2.93492,-1.87988 6.70952,-3.34326 14.75,-5.0625 0.10242,-0.0288 0.20689,-0.0496 0.3125,-0.0625 9.64032,-0.51057 14.62261,2.55555 18.75,5.28125 4.10409,2.71031 7.39006,5.05516 15.8125,4.65625 8.40199,-2.53916 16.35891,-4.54874 23.46875,-4.96875 7.1752,-0.42387 13.63348,0.80691 18.4375,4.9375 0.007,0.006 0.0241,-0.006 0.0312,0 0.0222,0.0192 0.0403,0.0432 0.0625,0.0625 9.64031,7.55649 21.54644,5.4483 29.625,-3.8125 1.90792,-3.3054 3.00536,-7.6204 2.8125,-11.6875 -0.19558,-4.12438 -1.63887,-7.8768 -4.53125,-10.375 -0.0328,-0.0405 -0.064,-0.0822 -0.0937,-0.125 -8.12931,-8.20022 -15.57851,-16.8815 -22.3592,-25.95967 -6.882,-9.2138 -13.07538,-18.83644 -18.59227,-28.77993 -5.56492,-10.03003 -10.44152,-20.38652 -14.64228,-30.97915 -0.0207,-0.0522 -0.0418,-0.10403 -0.0625,-0.15625 -2.13803,-4.21834 -4.16791,-8.87323 -6.84375,-12.1875 -2.68248,-3.32249 -5.67048,-5.30959 -10.65625,-4.8125 0,0 0,0 0,0"
       id="path10046" />
    <path
       style="fill:#a07d00;fill-opacity:1;fill-rule:nonzero;stroke:none"
       d="m 322.54489,153.13898 c -8.9,5.60905 -28.41976,-19.4771 -38.91693,-20.17057 -10.49716,-0.69347 -33.1474,21.60681 -41.23217,14.8757 -8.08478,-6.73111 9.74163,-33.04755 7.15736,-43.24524 -2.58428,-10.197697 -30.79242,-24.848184 -26.88908,-34.617288 3.90333,-9.769105 34.44042,-0.947412 43.34041,-6.55646 8.9,-5.609056 14.11665,-36.963834 24.61382,-36.270365 10.49717,0.693471 11.54371,32.462015 19.62849,39.193131 8.08477,6.73111 39.51698,2.003273 42.10125,12.200963 2.58427,10.197696 -27.30601,21.010048 -31.20934,30.779149 -3.90333,9.76911 10.30619,38.20193 1.40619,43.81098 z"
       id="path6269"
       inkscape:connector-curvature="0" />
    <path
       style="fill:url(#linearGradient3178);fill-opacity:1;fill-rule:nonzero;stroke:none;display:inline"
       d="m 316.42088,142.54605 c -7.30899,4.60634 -23.33928,-15.99527 -31.95992,-16.56477 -8.62063,-0.5695 -27.22179,17.74426 -33.86128,12.21644 -6.6395,-5.52782 8.00016,-27.13979 5.87787,-35.51448 -2.1223,-8.374703 -25.28779,-20.406187 -22.08224,-28.428913 3.20555,-8.022726 28.28366,-0.778047 35.59264,-5.384391 7.30899,-4.60635 11.59308,-30.355975 20.21371,-29.786474 8.62064,0.569502 9.4801,26.658926 16.1196,32.186751 6.63949,5.527819 32.4527,1.645156 34.575,10.019851 2.12229,8.3747 -22.42464,17.254175 -25.63019,25.276896 -3.20555,8.02273 8.4638,31.37274 1.15481,35.97909 z"
       id="path6269-4"
       inkscape:connector-curvature="0" />
  </g>
</svg>
