<?xml version="1.0" encoding="UTF-8" standalone="no"?>
<!-- Created with Inkscape (http://www.inkscape.org/) -->
<svg id="svg1" xmlns:rdf="http://www.w3.org/1999/02/22-rdf-syntax-ns#" xmlns="http://www.w3.org/2000/svg" height="871.03" width="710.83" version="1.1" xmlns:cc="http://creativecommons.org/ns#" xmlns:xlink="http://www.w3.org/1999/xlink" xmlns:dc="http://purl.org/dc/elements/1.1/">
	<metadata id="metadata3">
		<rdf:RDF>
			<cc:Work rdf:about="">
				<dc:title/>
				<dc:description/>
				<dc:subject>
					<rdf:Bag>
						<rdf:li>holiday</rdf:li>
						<rdf:li/>
						<rdf:li>decoration</rdf:li>
						<rdf:li>tree</rdf:li>
						<rdf:li>xmas</rdf:li>
						<rdf:li>christmas</rdf:li>
						<rdf:li>evergreen</rdf:li>
						<rdf:li>plant</rdf:li>
						<rdf:li>recreation</rdf:li>
					</rdf:Bag>
				</dc:subject>
				<dc:publisher>
					<cc:Agent rdf:about="http://www.openclipart.org">
						<dc:title>Nathan Eady</dc:title>
					</cc:Agent>
				</dc:publisher>
				<dc:creator>
					<cc:Agent>
						<dc:title>Nathan Eady</dc:title>
					</cc:Agent>
				</dc:creator>
				<dc:rights>
					<cc:Agent>
						<dc:title>Nathan Eady</dc:title>
					</cc:Agent>
				</dc:rights>
				<dc:date/>
				<dc:format>image/svg+xml</dc:format>
				<dc:type rdf:resource="http://purl.org/dc/dcmitype/StillImage"/>
				<cc:license rdf:resource="http://web.resource.org/cc/PublicDomain"/>
				<dc:language>en</dc:language>
			</cc:Work>
			<cc:License rdf:about="http://web.resource.org/cc/PublicDomain">
				<cc:permits rdf:resource="http://web.resource.org/cc/Reproduction"/>
				<cc:permits rdf:resource="http://web.resource.org/cc/Distribution"/>
				<cc:permits rdf:resource="http://web.resource.org/cc/DerivativeWorks"/>
			</cc:License>
		</rdf:RDF>
	</metadata>
	<defs id="defs3">
		<linearGradient id="linearGradient2347">
			<stop id="stop2348" stop-color="#fffd23" offset="0"/>
			<stop id="stop2349" stop-color="#ffd240" offset="1"/>
		</linearGradient>
		<linearGradient id="linearGradient2338">
			<stop id="stop2339" stop-color="#F00" stop-opacity="0.0000000" offset="0"/>
			<stop id="stop2340" stop-color="#ab3e3e" stop-opacity="0.60337555" offset="1"/>
		</linearGradient>
		<linearGradient id="linearGradient2331">
			<stop id="stop2332" stop-color="#ffcece" stop-opacity="0.78902954" offset="0"/>
			<stop id="stop2333" stop-color="#ff5d5d" stop-opacity="0.0000000" offset="1"/>
		</linearGradient>
		<linearGradient id="linearGradient1545">
			<stop id="stop1546" stop-color="#FFF" offset="0"/>
			<stop id="stop1547" stop-color="#FFF" stop-opacity="0.0000000" offset="1"/>
		</linearGradient>
		<radialGradient id="radialGradient1544" xlink:href="#linearGradient1545" spreadMethod="reflect" gradientUnits="userSpaceOnUse" cy="397.96" cx="245.42" gradientTransform="scale(1.287707,0.77657419)" r="184.67"/>
		<linearGradient id="linearGradient1553">
			<stop id="stop1554" stop-color="#42cb3e" stop-opacity="0.0000000" offset="0"/>
			<stop id="stop1559" stop-color="#c7e5c6" stop-opacity="0.0000000" offset="0.5"/>
			<stop id="stop1558" stop-color="#FFF" stop-opacity="0.55696201" offset="1"/>
		</linearGradient>
		<linearGradient id="linearGradient1533">
			<stop id="stop1534" stop-color="#75cb62" offset="0"/>
			<stop id="stop1550" stop-color="#77ce63" stop-opacity="0.88235295" offset="0.11882"/>
			<stop id="stop1549" stop-color="#79d265" stop-opacity="0.76470590" offset="0.23764"/>
			<stop id="stop1548" stop-color="#7dd968" stop-opacity="0.52941179" offset="0.47529"/>
			<stop id="stop1535" stop-color="#72e956" stop-opacity="0.0000000" offset="1"/>
		</linearGradient>
		<linearGradient id="linearGradient1538" y2="1124.7" xlink:href="#linearGradient1533" gradientUnits="userSpaceOnUse" y1="1402.4" gradientTransform="scale(1.7974849,0.55633289)" x2="73.823" x1="293.89"/>
		<linearGradient id="linearGradient1552" y2="1056.7" xlink:href="#linearGradient1553" gradientUnits="userSpaceOnUse" y1="904.7" gradientTransform="scale(1.7974849,0.55633289)" x2="324.12" x1="209.25"/>
		<linearGradient id="linearGradient1561" y2="426.89" xlink:href="#linearGradient1533" gradientUnits="userSpaceOnUse" y1="629.62" gradientTransform="scale(1.3838814,0.72260527)" x2="168.79" x1="328.69"/>
		<linearGradient id="linearGradient1562" y2="367.62" xlink:href="#linearGradient1553" gradientUnits="userSpaceOnUse" y1="247.23" gradientTransform="scale(1.3838814,0.72260527)" x2="363.16" x1="277.95"/>
		<linearGradient id="linearGradient1565" y2="268.04" xlink:href="#linearGradient1553" gradientUnits="userSpaceOnUse" y1="221.05" gradientTransform="scale(1.3691152,0.73039873)" x2="319.52" x1="295.08"/>
		<linearGradient id="linearGradient1566" y2="305.11" xlink:href="#linearGradient1533" gradientUnits="userSpaceOnUse" y1="431.16" gradientTransform="scale(1.3691152,0.73039873)" x2="222.36" x1="298.06"/>
		<linearGradient id="linearGradient1568" y2="1431.4" xlink:href="#linearGradient1553" gradientUnits="userSpaceOnUse" y1="1420.3" gradientTransform="scale(2.0848156,0.47965872)" x2="322.73" x1="312.8"/>
		<linearGradient id="linearGradient1569" y2="1485.5" xlink:href="#linearGradient1533" gradientUnits="userSpaceOnUse" y1="1601.1" gradientTransform="scale(2.0848156,0.47965872)" x2="219.77" x1="300.4"/>
		<radialGradient id="radialGradient2334" xlink:href="#linearGradient2331" gradientUnits="userSpaceOnUse" cy="110.85" cx="97.105" gradientTransform="scale(0.9944289,1.0056023)" r="19.777"/>
		<linearGradient id="linearGradient2337" y2="75.506" xlink:href="#linearGradient2338" gradientUnits="userSpaceOnUse" y1="64.468" x2="73.703" x1="64.831"/>
		<linearGradient id="linearGradient2346" y2="143.25" xlink:href="#linearGradient2347" spreadMethod="reflect" gradientUnits="userSpaceOnUse" y1="143.25" gradientTransform="scale(1.6431677,0.60858061)" x2="61.114" x1="60.604"/>
		<linearGradient id="linearGradient2351" y2="28.333" xlink:href="#linearGradient2347" spreadMethod="reflect" gradientUnits="userSpaceOnUse" y1="28.333" gradientTransform="scale(0.36174307,2.764393)" x2="265.47" x1="262.52"/>
		<linearGradient id="linearGradient3175" y2="621.58" xlink:href="#linearGradient1533" gradientUnits="userSpaceOnUse" x2="138.13" gradientTransform="scale(1.3983248,0.71514141)" y1="892.47" x1="351.78"/>
		<linearGradient id="linearGradient3177" y2="542.39" xlink:href="#linearGradient1553" gradientUnits="userSpaceOnUse" x2="397.84" gradientTransform="scale(1.3983248,0.71514141)" y1="381.52" x1="283.98"/>
		<radialGradient id="radialGradient3179" xlink:href="#linearGradient1545" spreadMethod="reflect" gradientUnits="userSpaceOnUse" cy="342.24" cx="264.43" gradientTransform="scale(1.2482138,0.80114478)" r="127.93"/>
	</defs>
	<g id="g1698" fill-rule="evenodd" transform="translate(-10.563122,-48.894814)">
		<rect id="rect1531" rx="10" ry="10" height="200.1" width="90.693" y="719.82" x="345.5" fill="#672900"/>
		<path id="path1530" d="m384.15,129.92c-22.554-0.47564-143.83,89.146-181.19,127.24,33.15,1.0279,49.025,10.693,69.219,20.359-44.367,40.111-110.33,67.266-137.42,98.739,14.785,13.305,61.24,3.5777,87.542,18.323-62.248,32.933-100.02,101.86-160.83,133.35,26.054,18.313,57.867,32.307,99.757,37.663-66.053,41.066-151.6,125.04-150.65,140.47,1.3049,21.222,180.51,25.787,270.77,38.681,51.236-1.0179,102.47-2.0358,153.71-3.0538,0,0,284.23-6.9394,282.98-23.412-1.1648-15.413-139.46-139.46-162.87-150.65,49.025-0.94559,90.853-7.6494,138.44-24.43-65.81-44.55-102.81-86.21-145.57-146.59,24.101,3.3831,55.4,9.6453,80.94-5.6859-88.921-52.398-94.348-91.84-150.16-115.45,33.746,4.4834,55.976-1.1102,75.327-8.1434-42.27-47.24-148.88-136.97-170-137.41z" fill="#3a6a35"/>
		<path id="path1532" stroke-linejoin="miter" d="m20.748,699.78c4.309,10.924,137.48,23.055,184.86,8.11,82.875-26.143,113.74-60.566,171.47-89.089,101.6-50.193,151.14-60.181,170.74-56.124,22.928,4.7461,126.48-11.877,125.1-28.141-1.6163-19.02-110.6-22.133-157.59-10.255-18.502,4.6909-116.42-8.81-159.82-2.4678-42.674,6.237-135.57,42.067-185.76,55.535-40.4,10.85-153.31,111.52-149,122.44z" stroke="url(#linearGradient1552)" stroke-linecap="butt" stroke-miterlimit="4" stroke-dasharray="none" stroke-width="6.25" fill="url(#linearGradient1538)"/>
		<path id="path1560" stroke-linejoin="miter" d="m74.489,524.82c-4.4287,8.976,54.19,41.805,147.21,16.86,91.85-24.632,88.263-60.566,133.07-89.089,78.845-50.193,147.29-70.181,175-64.874,9.0429,1.732,56.646,9.9683,79.581,3.1095,11.068-3.31-43.959-35.043-60.754-54.214-24.511-27.978-51.43-51.355-71.537-57.291-14.487-4.2767-105.35,69.94-139.02,76.282-33.116,6.237-67.703,22.067-106.66,35.535-15.677,5.4201-47.236,33.861-76.765,63.372-32.594,32.575-78.039,66.098-80.117,70.309z" stroke="url(#linearGradient3177)" stroke-linecap="butt" stroke-miterlimit="4" stroke-width="5.50577116" fill="url(#linearGradient3175)"/>
		<path id="path1563" stroke-linejoin="miter" d="m146.02,369.58c-6.7795,12.919,49.247,10.844,76.95,18.777,26.55,7.6023,127.31-53.339,158.53-73.692,22.686-14.792,79.136-44.374,98.462-43.2,21.186,1.2868,46.25-0.0937,61.939-5.1897,7.5713-2.4593-25.071-31.037-47.81-51.53-19.839-17.88-33.932-26.906-47.686-31.316-9.9098-3.1775-72.066,51.964-95.102,56.677-22.654,4.634-12.564-1.1048-39.212,8.902-10.724,4.027-62.313,48.908-86.263,64.584-27.534,18.022-73.806,44.555-79.806,55.989z" stroke="url(#linearGradient1562)" stroke-linecap="butt" stroke-miterlimit="4" stroke-width="3.92517352" fill="url(#linearGradient1561)"/>
		<path id="path1564" stroke-linejoin="miter" d="m217.47,249.8c0.89464,9.8462,41.321,13.358,56.597,21.927,21.077,11.823,68.198-39.223,103.5-48.153,34.885-8.8259,72.631-17.118,84.631-33.766,2.803-3.8884-20.182-16.398-33.952-28.052-12.013-10.167-20.547-15.3-28.876-17.807-6.0009-1.8068-43.639,29.549-57.589,32.228-13.718,2.635-7.608-0.62823-23.745,5.0619-6.4939,2.2899-41.484,22.811-55.987,31.725-16.673,10.248-45.584,25.75-44.577,36.837z" stroke="url(#linearGradient1565)" stroke-linecap="butt" stroke-miterlimit="4" stroke-width="2.30329347" fill="url(#linearGradient1566)"/>
		<path id="path1567" stroke-linejoin="miter" d="m324.02,691.71c-3.7548,9.5841,53.421,26.328,71.304,39.485,24.675,18.154,110.83-0.60128,166.99-2.2828,56.682-1.7345,123.51-0.76534,149.58-12.48,6.0877-2.7363-21.017-22.172-35.118-37.738-12.302-13.581-22.115-21.257-32.978-26.39-7.8265-3.6979-78.853,13.372-100.58,11.264-21.368-2.0723-10.777-3.1202-37.244-3.1144-10.651,0.002-72.246,7.7325-97.986,11.322-29.592,4.1264-79.738,9.1431-83.966,19.934z" stroke="url(#linearGradient1568)" stroke-linecap="butt" stroke-miterlimit="4" stroke-width="2.86463475" fill="url(#linearGradient1569)"/>
	</g>
	<g id="g1682" fill-rule="evenodd" transform="matrix(0.348828,0,0,0.348828,244.72168,-64.058214)">
		<path id="path914" d="M430.8,217.98,302.78,334.37,332.77,516.44,166.83,435.75,2.9339,520.54,28.396,337.78-102.89,219.61,78.795,219.85,161.55,55.919l86.825,161.83,182.43,0.23728z" fill-opacity="0.75" transform="matrix(0.671459,0,0,0.714761,258.9105,143.6694)" fill="#ffa100"/>
		<path id="path1538" d="m593.81,363.95-105.45,90.039,24.707,145.22-136.69-64.358-135,67.626,20.973-145.77-108.14-91.457,149.66,0.19092,68.165-133.54,71.519,131.86,150.27,0.18924z" fill-opacity="0.75" transform="matrix(0.671459,0,0,0.714761,117.8747,53.2844)" fill="#ffd800"/>
		<path id="path1539" d="m546.65,375.03-82.832,71.291,19.406,114.98-107.37-50.957-106.04,53.545,16.474-115.41-84.942-72.414,117.55,0.15117,53.542-105.73,56.177,104.4,118.03,0.14984z" fill-opacity="0.75" transform="matrix(0.671459,0,0,0.714761,117.8747,53.2844)" fill="#ffe500"/>
		<path id="path1548" d="M367.97,246.62,332,322.19l-78.938-0.0937,57.312,47.969,63.219,12.25,55.719-10,35.156-49.469-58.78-1.6-37.72-74.63z" xlink:href="#path1540" transform="matrix(0.671459,0,0,0.714761,117.8747,53.2844)" fill="url(#radialGradient3179)"/>
		<path id="path1540" d="m516.18,377.15-52.361,69.171-82.963,14.022-94.151-17.17-85.357-67.113,117.55,0.15117,53.542-105.73,56.177,104.4,87.563,2.2702z" transform="matrix(0.671459,0,0,0.714761,117.8747,53.2844)" fill="url(#radialGradient1544)"/>
	</g>
	<g id="g2358" transform="translate(146.76818,147.32729)">
		<g id="g2341" fill-rule="evenodd">
			<path id="path1707" d="m76.25,64.862c0,8.9746-7.2754,16.25-16.25,16.25s-16.25-7.2754-16.25-16.25,7.2754-16.25,16.25-16.25,16.25,7.2754,16.25,16.25z" fill-opacity="0.99633699" transform="matrix(1.367152,0,0,1.367152,13.10527,21.92672)" fill="#e33939"/>
			<path id="path2336" d="m76.25,64.862c0,8.9746-7.2754,16.25-16.25,16.25s-16.25-7.2754-16.25-16.25,7.2754-16.25,16.25-16.25,16.25,7.2754,16.25,16.25z" transform="matrix(1.367152,0,0,1.367152,13.0496,21.8445)" fill="url(#linearGradient2337)"/>
			<path id="path2329" d="m116.23,111.47c0,10.984-8.805,19.887-19.666,19.887s-19.666-8.9039-19.666-19.887,8.805-19.887,19.666-19.887,19.666,8.9039,19.666,19.887z" transform="matrix(0.741573,0,0,0.741573,18.10472,19.24754)" fill="url(#radialGradient2334)"/>
		</g>
		<g id="g2352">
			<path id="path2350" stroke-linejoin="miter" d="M95.901,85.394,96.122,71.252" stroke="url(#linearGradient2351)" stroke-linecap="butt" stroke-miterlimit="4" stroke-width="1.875" fill="none"/>
			<rect id="rect2345" fill-rule="evenodd" height="4.4194" width="11.932" y="84.952" x="89.714" fill="url(#linearGradient2346)"/>
		</g>
	</g>
	<g id="g2369" transform="translate(482.99668,276.99509)">
		<g id="g2370" fill-rule="evenodd">
			<path id="path2371" d="m76.25,64.862c0,8.9746-7.2754,16.25-16.25,16.25s-16.25-7.2754-16.25-16.25,7.2754-16.25,16.25-16.25,16.25,7.2754,16.25,16.25z" fill-opacity="0.99633699" transform="matrix(1.367152,0,0,1.367152,13.10527,21.92672)" fill="#e33939"/>
			<path id="path2372" d="m76.25,64.862c0,8.9746-7.2754,16.25-16.25,16.25s-16.25-7.2754-16.25-16.25,7.2754-16.25,16.25-16.25,16.25,7.2754,16.25,16.25z" transform="matrix(1.367152,0,0,1.367152,13.0496,21.8445)" fill="url(#linearGradient2337)"/>
			<path id="path2373" d="m116.23,111.47c0,10.984-8.805,19.887-19.666,19.887s-19.666-8.9039-19.666-19.887,8.805-19.887,19.666-19.887,19.666,8.9039,19.666,19.887z" transform="matrix(0.741573,0,0,0.741573,18.10472,19.24754)" fill="url(#radialGradient2334)"/>
		</g>
		<g id="g2374">
			<path id="path2375" stroke-linejoin="miter" d="M95.901,85.394,96.122,71.252" stroke="url(#linearGradient2351)" stroke-linecap="butt" stroke-miterlimit="4" stroke-width="1.875" fill="none"/>
			<rect id="rect2376" fill-rule="evenodd" height="4.4194" width="11.932" y="84.952" x="89.714" fill="url(#linearGradient2346)"/>
		</g>
	</g>
	<g id="g2377" transform="translate(367.20798,156.78689)">
		<g id="g2378" fill-rule="evenodd">
			<path id="path2379" d="m76.25,64.862c0,8.9746-7.2754,16.25-16.25,16.25s-16.25-7.2754-16.25-16.25,7.2754-16.25,16.25-16.25,16.25,7.2754,16.25,16.25z" fill-opacity="0.99633699" transform="matrix(1.367152,0,0,1.367152,13.10527,21.92672)" fill="#e33939"/>
			<path id="path2380" d="m76.25,64.862c0,8.9746-7.2754,16.25-16.25,16.25s-16.25-7.2754-16.25-16.25,7.2754-16.25,16.25-16.25,16.25,7.2754,16.25,16.25z" transform="matrix(1.367152,0,0,1.367152,13.0496,21.8445)" fill="url(#linearGradient2337)"/>
			<path id="path2381" d="m116.23,111.47c0,10.984-8.805,19.887-19.666,19.887s-19.666-8.9039-19.666-19.887,8.805-19.887,19.666-19.887,19.666,8.9039,19.666,19.887z" transform="matrix(0.741573,0,0,0.741573,18.10472,19.24754)" fill="url(#radialGradient2334)"/>
		</g>
		<g id="g2382">
			<path id="path2383" stroke-linejoin="miter" d="M95.901,85.394,96.122,71.252" stroke="url(#linearGradient2351)" stroke-linecap="butt" stroke-miterlimit="4" stroke-width="1.875" fill="none"/>
			<rect id="rect2384" fill-rule="evenodd" height="4.4194" width="11.932" y="84.952" x="89.714" fill="url(#linearGradient2346)"/>
		</g>
	</g>
	<g id="g2385" transform="translate(56.081018,262.85289)">
		<g id="g2386" fill-rule="evenodd">
			<path id="path2387" d="m76.25,64.862c0,8.9746-7.2754,16.25-16.25,16.25s-16.25-7.2754-16.25-16.25,7.2754-16.25,16.25-16.25,16.25,7.2754,16.25,16.25z" fill-opacity="0.99633699" transform="matrix(1.367152,0,0,1.367152,13.10527,21.92672)" fill="#e33939"/>
			<path id="path2388" d="m76.25,64.862c0,8.9746-7.2754,16.25-16.25,16.25s-16.25-7.2754-16.25-16.25,7.2754-16.25,16.25-16.25,16.25,7.2754,16.25,16.25z" transform="matrix(1.367152,0,0,1.367152,13.0496,21.8445)" fill="url(#linearGradient2337)"/>
			<path id="path2389" d="m116.23,111.47c0,10.984-8.805,19.887-19.666,19.887s-19.666-8.9039-19.666-19.887,8.805-19.887,19.666-19.887,19.666,8.9039,19.666,19.887z" transform="matrix(0.741573,0,0,0.741573,18.10472,19.24754)" fill="url(#radialGradient2334)"/>
		</g>
		<g id="g2390">
			<path id="path2391" stroke-linejoin="miter" d="M95.901,85.394,96.122,71.252" stroke="url(#linearGradient2351)" stroke-linecap="butt" stroke-miterlimit="4" stroke-width="1.875" fill="none"/>
			<rect id="rect2392" fill-rule="evenodd" height="4.4194" width="11.932" y="84.952" x="89.714" fill="url(#linearGradient2346)"/>
		</g>
	</g>
	<g id="g2393" transform="translate(222.25108,233.68469)">
		<g id="g2394" fill-rule="evenodd">
			<path id="path2395" d="m76.25,64.862c0,8.9746-7.2754,16.25-16.25,16.25s-16.25-7.2754-16.25-16.25,7.2754-16.25,16.25-16.25,16.25,7.2754,16.25,16.25z" fill-opacity="0.99633699" transform="matrix(1.367152,0,0,1.367152,13.10527,21.92672)" fill="#e33939"/>
			<path id="path2396" d="m76.25,64.862c0,8.9746-7.2754,16.25-16.25,16.25s-16.25-7.2754-16.25-16.25,7.2754-16.25,16.25-16.25,16.25,7.2754,16.25,16.25z" transform="matrix(1.367152,0,0,1.367152,13.0496,21.8445)" fill="url(#linearGradient2337)"/>
			<path id="path2397" d="m116.23,111.47c0,10.984-8.805,19.887-19.666,19.887s-19.666-8.9039-19.666-19.887,8.805-19.887,19.666-19.887,19.666,8.9039,19.666,19.887z" transform="matrix(0.741573,0,0,0.741573,18.10472,19.24754)" fill="url(#radialGradient2334)"/>
		</g>
		<g id="g2398">
			<path id="path2399" stroke-linejoin="miter" d="M95.901,85.394,96.122,71.252" stroke="url(#linearGradient2351)" stroke-linecap="butt" stroke-miterlimit="4" stroke-width="1.875" fill="none"/>
			<rect id="rect2400" fill-rule="evenodd" height="4.4194" width="11.932" y="84.952" x="89.714" fill="url(#linearGradient2346)"/>
		</g>
	</g>
	<g id="g2401" transform="translate(287.65848,101.10219)">
		<g id="g2402" fill-rule="evenodd">
			<path id="path2403" d="m76.25,64.862c0,8.9746-7.2754,16.25-16.25,16.25s-16.25-7.2754-16.25-16.25,7.2754-16.25,16.25-16.25,16.25,7.2754,16.25,16.25z" fill-opacity="0.99633699" transform="matrix(1.367152,0,0,1.367152,13.10527,21.92672)" fill="#e33939"/>
			<path id="path2404" d="m76.25,64.862c0,8.9746-7.2754,16.25-16.25,16.25s-16.25-7.2754-16.25-16.25,7.2754-16.25,16.25-16.25,16.25,7.2754,16.25,16.25z" transform="matrix(1.367152,0,0,1.367152,13.0496,21.8445)" fill="url(#linearGradient2337)"/>
			<path id="path2405" d="m116.23,111.47c0,10.984-8.805,19.887-19.666,19.887s-19.666-8.9039-19.666-19.887,8.805-19.887,19.666-19.887,19.666,8.9039,19.666,19.887z" transform="matrix(0.741573,0,0,0.741573,18.10472,19.24754)" fill="url(#radialGradient2334)"/>
		</g>
		<g id="g2406">
			<path id="path2407" stroke-linejoin="miter" d="M95.901,85.394,96.122,71.252" stroke="url(#linearGradient2351)" stroke-linecap="butt" stroke-miterlimit="4" stroke-width="1.875" fill="none"/>
			<rect id="rect2408" fill-rule="evenodd" height="4.4194" width="11.932" y="84.952" x="89.714" fill="url(#linearGradient2346)"/>
		</g>
	</g>
	<g id="g2409" transform="translate(325.66548,294.67269)">
		<g id="g2410" fill-rule="evenodd">
			<path id="path2411" d="m76.25,64.862c0,8.9746-7.2754,16.25-16.25,16.25s-16.25-7.2754-16.25-16.25,7.2754-16.25,16.25-16.25,16.25,7.2754,16.25,16.25z" fill-opacity="0.99633699" transform="matrix(1.367152,0,0,1.367152,13.10527,21.92672)" fill="#e33939"/>
			<path id="path2412" d="m76.25,64.862c0,8.9746-7.2754,16.25-16.25,16.25s-16.25-7.2754-16.25-16.25,7.2754-16.25,16.25-16.25,16.25,7.2754,16.25,16.25z" transform="matrix(1.367152,0,0,1.367152,13.0496,21.8445)" fill="url(#linearGradient2337)"/>
			<path id="path2413" d="m116.23,111.47c0,10.984-8.805,19.887-19.666,19.887s-19.666-8.9039-19.666-19.887,8.805-19.887,19.666-19.887,19.666,8.9039,19.666,19.887z" transform="matrix(0.741573,0,0,0.741573,18.10472,19.24754)" fill="url(#radialGradient2334)"/>
		</g>
		<g id="g2414">
			<path id="path2415" stroke-linejoin="miter" d="M95.901,85.394,96.122,71.252" stroke="url(#linearGradient2351)" stroke-linecap="butt" stroke-miterlimit="4" stroke-width="1.875" fill="none"/>
			<rect id="rect2416" fill-rule="evenodd" height="4.4194" width="11.932" y="84.952" x="89.714" fill="url(#linearGradient2346)"/>
		</g>
	</g>
	<g id="g2417" transform="translate(34.867758,439.62959)">
		<g id="g2418" fill-rule="evenodd">
			<path id="path2419" d="m76.25,64.862c0,8.9746-7.2754,16.25-16.25,16.25s-16.25-7.2754-16.25-16.25,7.2754-16.25,16.25-16.25,16.25,7.2754,16.25,16.25z" fill-opacity="0.99633699" transform="matrix(1.367152,0,0,1.367152,13.10527,21.92672)" fill="#e33939"/>
			<path id="path2420" d="m76.25,64.862c0,8.9746-7.2754,16.25-16.25,16.25s-16.25-7.2754-16.25-16.25,7.2754-16.25,16.25-16.25,16.25,7.2754,16.25,16.25z" transform="matrix(1.367152,0,0,1.367152,13.0496,21.8445)" fill="url(#linearGradient2337)"/>
			<path id="path2421" d="m116.23,111.47c0,10.984-8.805,19.887-19.666,19.887s-19.666-8.9039-19.666-19.887,8.805-19.887,19.666-19.887,19.666,8.9039,19.666,19.887z" transform="matrix(0.741573,0,0,0.741573,18.10472,19.24754)" fill="url(#radialGradient2334)"/>
		</g>
		<g id="g2422">
			<path id="path2423" stroke-linejoin="miter" d="M95.901,85.394,96.122,71.252" stroke="url(#linearGradient2351)" stroke-linecap="butt" stroke-miterlimit="4" stroke-width="1.875" fill="none"/>
			<rect id="rect2424" fill-rule="evenodd" height="4.4194" width="11.932" y="84.952" x="89.714" fill="url(#linearGradient2346)"/>
		</g>
	</g>
	<g id="g2425" transform="translate(189.54748,391.89989)">
		<g id="g2426" fill-rule="evenodd">
			<path id="path2427" d="m76.25,64.862c0,8.9746-7.2754,16.25-16.25,16.25s-16.25-7.2754-16.25-16.25,7.2754-16.25,16.25-16.25,16.25,7.2754,16.25,16.25z" fill-opacity="0.99633699" transform="matrix(1.367152,0,0,1.367152,13.10527,21.92672)" fill="#e33939"/>
			<path id="path2428" d="m76.25,64.862c0,8.9746-7.2754,16.25-16.25,16.25s-16.25-7.2754-16.25-16.25,7.2754-16.25,16.25-16.25,16.25,7.2754,16.25,16.25z" transform="matrix(1.367152,0,0,1.367152,13.0496,21.8445)" fill="url(#linearGradient2337)"/>
			<path id="path2429" d="m116.23,111.47c0,10.984-8.805,19.887-19.666,19.887s-19.666-8.9039-19.666-19.887,8.805-19.887,19.666-19.887,19.666,8.9039,19.666,19.887z" transform="matrix(0.741573,0,0,0.741573,18.10472,19.24754)" fill="url(#radialGradient2334)"/>
		</g>
		<g id="g2430">
			<path id="path2431" stroke-linejoin="miter" d="M95.901,85.394,96.122,71.252" stroke="url(#linearGradient2351)" stroke-linecap="butt" stroke-miterlimit="4" stroke-width="1.875" fill="none"/>
			<rect id="rect2432" fill-rule="evenodd" height="4.4194" width="11.932" y="84.952" x="89.714" fill="url(#linearGradient2346)"/>
		</g>
	</g>
	<g id="g2433" transform="translate(425.54428,371.57059)">
		<g id="g2434" fill-rule="evenodd">
			<path id="path2435" d="m76.25,64.862c0,8.9746-7.2754,16.25-16.25,16.25s-16.25-7.2754-16.25-16.25,7.2754-16.25,16.25-16.25,16.25,7.2754,16.25,16.25z" fill-opacity="0.99633699" transform="matrix(1.367152,0,0,1.367152,13.10527,21.92672)" fill="#e33939"/>
			<path id="path2436" d="m76.25,64.862c0,8.9746-7.2754,16.25-16.25,16.25s-16.25-7.2754-16.25-16.25,7.2754-16.25,16.25-16.25,16.25,7.2754,16.25,16.25z" transform="matrix(1.367152,0,0,1.367152,13.0496,21.8445)" fill="url(#linearGradient2337)"/>
			<path id="path2437" d="m116.23,111.47c0,10.984-8.805,19.887-19.666,19.887s-19.666-8.9039-19.666-19.887,8.805-19.887,19.666-19.887,19.666,8.9039,19.666,19.887z" transform="matrix(0.741573,0,0,0.741573,18.10472,19.24754)" fill="url(#radialGradient2334)"/>
		</g>
		<g id="g2438">
			<path id="path2439" stroke-linejoin="miter" d="M95.901,85.394,96.122,71.252" stroke="url(#linearGradient2351)" stroke-linecap="butt" stroke-miterlimit="4" stroke-width="1.875" fill="none"/>
			<rect id="rect2440" fill-rule="evenodd" height="4.4194" width="11.932" y="84.952" x="89.714" fill="url(#linearGradient2346)"/>
		</g>
	</g>
	<g id="g2441" transform="translate(547.52018,434.32629)">
		<g id="g2442" fill-rule="evenodd">
			<path id="path2443" d="m76.25,64.862c0,8.9746-7.2754,16.25-16.25,16.25s-16.25-7.2754-16.25-16.25,7.2754-16.25,16.25-16.25,16.25,7.2754,16.25,16.25z" fill-opacity="0.99633699" transform="matrix(1.367152,0,0,1.367152,13.10527,21.92672)" fill="#e33939"/>
			<path id="path2444" d="m76.25,64.862c0,8.9746-7.2754,16.25-16.25,16.25s-16.25-7.2754-16.25-16.25,7.2754-16.25,16.25-16.25,16.25,7.2754,16.25,16.25z" transform="matrix(1.367152,0,0,1.367152,13.0496,21.8445)" fill="url(#linearGradient2337)"/>
			<path id="path2445" d="m116.23,111.47c0,10.984-8.805,19.887-19.666,19.887s-19.666-8.9039-19.666-19.887,8.805-19.887,19.666-19.887,19.666,8.9039,19.666,19.887z" transform="matrix(0.741573,0,0,0.741573,18.10472,19.24754)" fill="url(#radialGradient2334)"/>
		</g>
		<g id="g2446">
			<path id="path2447" stroke-linejoin="miter" d="M95.901,85.394,96.122,71.252" stroke="url(#linearGradient2351)" stroke-linecap="butt" stroke-miterlimit="4" stroke-width="1.875" fill="none"/>
			<rect id="rect2448" fill-rule="evenodd" height="4.4194" width="11.932" y="84.952" x="89.714" fill="url(#linearGradient2346)"/>
		</g>
	</g>
	<g id="g2449" transform="translate(344.22698,469.68169)">
		<g id="g2450" fill-rule="evenodd">
			<path id="path2451" d="m76.25,64.862c0,8.9746-7.2754,16.25-16.25,16.25s-16.25-7.2754-16.25-16.25,7.2754-16.25,16.25-16.25,16.25,7.2754,16.25,16.25z" fill-opacity="0.99633699" transform="matrix(1.367152,0,0,1.367152,13.10527,21.92672)" fill="#e33939"/>
			<path id="path2452" d="m76.25,64.862c0,8.9746-7.2754,16.25-16.25,16.25s-16.25-7.2754-16.25-16.25,7.2754-16.25,16.25-16.25,16.25,7.2754,16.25,16.25z" transform="matrix(1.367152,0,0,1.367152,13.0496,21.8445)" fill="url(#linearGradient2337)"/>
			<path id="path2453" d="m116.23,111.47c0,10.984-8.805,19.887-19.666,19.887s-19.666-8.9039-19.666-19.887,8.805-19.887,19.666-19.887,19.666,8.9039,19.666,19.887z" transform="matrix(0.741573,0,0,0.741573,18.10472,19.24754)" fill="url(#radialGradient2334)"/>
		</g>
		<g id="g2454">
			<path id="path2455" stroke-linejoin="miter" d="M95.901,85.394,96.122,71.252" stroke="url(#linearGradient2351)" stroke-linecap="butt" stroke-miterlimit="4" stroke-width="1.875" fill="none"/>
			<rect id="rect2456" fill-rule="evenodd" height="4.4194" width="11.932" y="84.952" x="89.714" fill="url(#linearGradient2346)"/>
		</g>
	</g>
	<g id="g2457" transform="translate(208.99288,538.62459)">
		<g id="g2458" fill-rule="evenodd">
			<path id="path2459" d="m76.25,64.862c0,8.9746-7.2754,16.25-16.25,16.25s-16.25-7.2754-16.25-16.25,7.2754-16.25,16.25-16.25,16.25,7.2754,16.25,16.25z" fill-opacity="0.99633699" transform="matrix(1.367152,0,0,1.367152,13.10527,21.92672)" fill="#e33939"/>
			<path id="path2460" d="m76.25,64.862c0,8.9746-7.2754,16.25-16.25,16.25s-16.25-7.2754-16.25-16.25,7.2754-16.25,16.25-16.25,16.25,7.2754,16.25,16.25z" transform="matrix(1.367152,0,0,1.367152,13.0496,21.8445)" fill="url(#linearGradient2337)"/>
			<path id="path2461" d="m116.23,111.47c0,10.984-8.805,19.887-19.666,19.887s-19.666-8.9039-19.666-19.887,8.805-19.887,19.666-19.887,19.666,8.9039,19.666,19.887z" transform="matrix(0.741573,0,0,0.741573,18.10472,19.24754)" fill="url(#radialGradient2334)"/>
		</g>
		<g id="g2462">
			<path id="path2463" stroke-linejoin="miter" d="M95.901,85.394,96.122,71.252" stroke="url(#linearGradient2351)" stroke-linecap="butt" stroke-miterlimit="4" stroke-width="1.875" fill="none"/>
			<rect id="rect2464" fill-rule="evenodd" height="4.4194" width="11.932" y="84.952" x="89.714" fill="url(#linearGradient2346)"/>
		</g>
	</g>
	<g id="g2465" transform="translate(477.69338,528.90189)">
		<g id="g2466" fill-rule="evenodd">
			<path id="path2467" d="m76.25,64.862c0,8.9746-7.2754,16.25-16.25,16.25s-16.25-7.2754-16.25-16.25,7.2754-16.25,16.25-16.25,16.25,7.2754,16.25,16.25z" fill-opacity="0.99633699" transform="matrix(1.367152,0,0,1.367152,13.10527,21.92672)" fill="#e33939"/>
			<path id="path2468" d="m76.25,64.862c0,8.9746-7.2754,16.25-16.25,16.25s-16.25-7.2754-16.25-16.25,7.2754-16.25,16.25-16.25,16.25,7.2754,16.25,16.25z" transform="matrix(1.367152,0,0,1.367152,13.0496,21.8445)" fill="url(#linearGradient2337)"/>
			<path id="path2469" d="m116.23,111.47c0,10.984-8.805,19.887-19.666,19.887s-19.666-8.9039-19.666-19.887,8.805-19.887,19.666-19.887,19.666,8.9039,19.666,19.887z" transform="matrix(0.741573,0,0,0.741573,18.10472,19.24754)" fill="url(#radialGradient2334)"/>
		</g>
		<g id="g2470">
			<path id="path2471" stroke-linejoin="miter" d="M95.901,85.394,96.122,71.252" stroke="url(#linearGradient2351)" stroke-linecap="butt" stroke-miterlimit="4" stroke-width="1.875" fill="none"/>
			<rect id="rect2472" fill-rule="evenodd" height="4.4194" width="11.932" y="84.952" x="89.714" fill="url(#linearGradient2346)"/>
		</g>
	</g>
	<g id="g2473" transform="translate(593.48208,603.14809)">
		<g id="g2474" fill-rule="evenodd">
			<path id="path2475" d="m76.25,64.862c0,8.9746-7.2754,16.25-16.25,16.25s-16.25-7.2754-16.25-16.25,7.2754-16.25,16.25-16.25,16.25,7.2754,16.25,16.25z" fill-opacity="0.99633699" transform="matrix(1.367152,0,0,1.367152,13.10527,21.92672)" fill="#e33939"/>
			<path id="path2476" d="m76.25,64.862c0,8.9746-7.2754,16.25-16.25,16.25s-16.25-7.2754-16.25-16.25,7.2754-16.25,16.25-16.25,16.25,7.2754,16.25,16.25z" transform="matrix(1.367152,0,0,1.367152,13.0496,21.8445)" fill="url(#linearGradient2337)"/>
			<path id="path2477" d="m116.23,111.47c0,10.984-8.805,19.887-19.666,19.887s-19.666-8.9039-19.666-19.887,8.805-19.887,19.666-19.887,19.666,8.9039,19.666,19.887z" transform="matrix(0.741573,0,0,0.741573,18.10472,19.24754)" fill="url(#radialGradient2334)"/>
		</g>
		<g id="g2478">
			<path id="path2479" stroke-linejoin="miter" d="M95.901,85.394,96.122,71.252" stroke="url(#linearGradient2351)" stroke-linecap="butt" stroke-miterlimit="4" stroke-width="1.875" fill="none"/>
			<rect id="rect2480" fill-rule="evenodd" height="4.4194" width="11.932" y="84.952" x="89.714" fill="url(#linearGradient2346)"/>
		</g>
	</g>
	<g id="g2481" transform="translate(112.64958,590.77369)">
		<g id="g2482" fill-rule="evenodd">
			<path id="path2483" d="m76.25,64.862c0,8.9746-7.2754,16.25-16.25,16.25s-16.25-7.2754-16.25-16.25,7.2754-16.25,16.25-16.25,16.25,7.2754,16.25,16.25z" fill-opacity="0.99633699" transform="matrix(1.367152,0,0,1.367152,13.10527,21.92672)" fill="#e33939"/>
			<path id="path2484" d="m76.25,64.862c0,8.9746-7.2754,16.25-16.25,16.25s-16.25-7.2754-16.25-16.25,7.2754-16.25,16.25-16.25,16.25,7.2754,16.25,16.25z" transform="matrix(1.367152,0,0,1.367152,13.0496,21.8445)" fill="url(#linearGradient2337)"/>
			<path id="path2485" d="m116.23,111.47c0,10.984-8.805,19.887-19.666,19.887s-19.666-8.9039-19.666-19.887,8.805-19.887,19.666-19.887,19.666,8.9039,19.666,19.887z" transform="matrix(0.741573,0,0,0.741573,18.10472,19.24754)" fill="url(#radialGradient2334)"/>
		</g>
		<g id="g2486">
			<path id="path2487" stroke-linejoin="miter" d="M95.901,85.394,96.122,71.252" stroke="url(#linearGradient2351)" stroke-linecap="butt" stroke-miterlimit="4" stroke-width="1.875" fill="none"/>
			<rect id="rect2488" fill-rule="evenodd" height="4.4194" width="11.932" y="84.952" x="89.714" fill="url(#linearGradient2346)"/>
		</g>
	</g>
	<g id="g2489" transform="translate(-57.939942,592.54139)">
		<g id="g2490" fill-rule="evenodd">
			<path id="path2491" d="m76.25,64.862c0,8.9746-7.2754,16.25-16.25,16.25s-16.25-7.2754-16.25-16.25,7.2754-16.25,16.25-16.25,16.25,7.2754,16.25,16.25z" fill-opacity="0.99633699" transform="matrix(1.367152,0,0,1.367152,13.10527,21.92672)" fill="#e33939"/>
			<path id="path2492" d="m76.25,64.862c0,8.9746-7.2754,16.25-16.25,16.25s-16.25-7.2754-16.25-16.25,7.2754-16.25,16.25-16.25,16.25,7.2754,16.25,16.25z" transform="matrix(1.367152,0,0,1.367152,13.0496,21.8445)" fill="url(#linearGradient2337)"/>
			<path id="path2493" d="m116.23,111.47c0,10.984-8.805,19.887-19.666,19.887s-19.666-8.9039-19.666-19.887,8.805-19.887,19.666-19.887,19.666,8.9039,19.666,19.887z" transform="matrix(0.741573,0,0,0.741573,18.10472,19.24754)" fill="url(#radialGradient2334)"/>
		</g>
		<g id="g2494">
			<path id="path2495" stroke-linejoin="miter" d="M95.901,85.394,96.122,71.252" stroke="url(#linearGradient2351)" stroke-linecap="butt" stroke-miterlimit="4" stroke-width="1.875" fill="none"/>
			<rect id="rect2496" fill-rule="evenodd" height="4.4194" width="11.932" y="84.952" x="89.714" fill="url(#linearGradient2346)"/>
		</g>
	</g>
	<g id="g2497" transform="translate(415.82158,613.75459)">
		<g id="g2498" fill-rule="evenodd">
			<path id="path2499" d="m76.25,64.862c0,8.9746-7.2754,16.25-16.25,16.25s-16.25-7.2754-16.25-16.25,7.2754-16.25,16.25-16.25,16.25,7.2754,16.25,16.25z" fill-opacity="0.99633699" transform="matrix(1.367152,0,0,1.367152,13.10527,21.92672)" fill="#e33939"/>
			<path id="path2500" d="m76.25,64.862c0,8.9746-7.2754,16.25-16.25,16.25s-16.25-7.2754-16.25-16.25,7.2754-16.25,16.25-16.25,16.25,7.2754,16.25,16.25z" transform="matrix(1.367152,0,0,1.367152,13.0496,21.8445)" fill="url(#linearGradient2337)"/>
			<path id="path2501" d="m116.23,111.47c0,10.984-8.805,19.887-19.666,19.887s-19.666-8.9039-19.666-19.887,8.805-19.887,19.666-19.887,19.666,8.9039,19.666,19.887z" transform="matrix(0.741573,0,0,0.741573,18.10472,19.24754)" fill="url(#radialGradient2334)"/>
		</g>
		<g id="g2502">
			<path id="path2503" stroke-linejoin="miter" d="M95.901,85.394,96.122,71.252" stroke="url(#linearGradient2351)" stroke-linecap="butt" stroke-miterlimit="4" stroke-width="1.875" fill="none"/>
			<rect id="rect2504" fill-rule="evenodd" height="4.4194" width="11.932" y="84.952" x="89.714" fill="url(#linearGradient2346)"/>
		</g>
	</g>
</svg>
